<?xml version="1.0" encoding="UTF-8"?>
<svg version="1.1" xmlns="http://www.w3.org/2000/svg" width="81" height="73">
<path d="M0 0 C26.73 0 53.46 0 81 0 C81 24.09 81 48.18 81 73 C54.27 73 27.54 73 0 73 C0 48.91 0 24.82 0 0 Z " fill="#FEFDFC" transform="translate(0,0)"/>
<path d="M0 0 C3 1 3 1 4.3515625 3.109375 C4.98191406 4.41648437 4.98191406 4.41648437 5.625 5.75 C6.26308594 7.04164062 6.26308594 7.04164062 6.9140625 8.359375 C10.72588922 17.62842127 8.98443903 24.928992 5.484375 33.94921875 C1.55117959 42.03297037 -5.25521788 46.91767698 -13.625 49.875 C-20.27399584 51.67401628 -27.17628085 51.24565389 -34 51 C-34 50.01 -34 49.02 -34 48 C-34.639375 47.690625 -35.27875 47.38125 -35.9375 47.0625 C-38 46 -38 46 -39 45 C-39.34790943 41.60157769 -39.45482319 39.67646934 -37.51940918 36.79788208 C-36.82657837 36.11837494 -36.13374756 35.4388678 -35.41992188 34.73876953 C-34.24870789 33.56823532 -34.24870789 33.56823532 -33.05383301 32.37405396 C-31.77421692 31.14088943 -31.77421692 31.14088943 -30.46875 29.8828125 C-29.60310425 29.02565643 -28.7374585 28.16850037 -27.84558105 27.28536987 C-25.07747818 24.55085321 -22.28924794 21.83792881 -19.5 19.125 C-17.61973016 17.27482225 -15.74080634 15.42327551 -13.86328125 13.5703125 C-9.2576885 9.03087417 -4.63539511 4.50899088 0 0 Z " fill="#D44E29" transform="translate(59,22)"/>
<path d="M0 0 C0.99 0 1.98 0 3 0 C2.4740625 1.1446875 2.4740625 1.1446875 1.9375 2.3125 C0.65231713 7.36755261 1.32536829 11.8764457 2 17 C1.01 17 0.02 17 -1 17 C-2.6875 15 -2.6875 15 -4 13 C-7.35196312 14.45545381 -9.53200551 16.29335773 -12.09423828 18.88305664 C-12.88831085 19.68050797 -13.68238342 20.47795929 -14.5005188 21.29957581 C-15.77256668 22.59181313 -15.77256668 22.59181313 -17.0703125 23.91015625 C-17.94775116 24.79279648 -18.82518982 25.67543671 -19.72921753 26.58482361 C-22.05652696 28.92692839 -24.37971267 31.27301684 -26.70056152 33.621521 C-29.97669315 36.93569494 -33.25806718 40.24464947 -36.54220581 43.55088806 C-38.29001251 45.31098854 -40.03513975 47.07375445 -41.77737427 48.83937073 C-42.56514252 49.63366989 -43.35291077 50.42796906 -44.16455078 51.24633789 C-44.85864044 51.94868057 -45.5527301 52.65102325 -46.26785278 53.37464905 C-48.62007704 55.58184593 -49.68038009 55.97279831 -52.9375 56.25 C-56 56 -56 56 -57.9375 54.8125 C-59 53 -59 53 -58.7421875 50.609375 C-57.45494489 46.08370097 -54.20779589 43.3324231 -51 40 C-50.51402344 39.49355957 -50.02804688 38.98711914 -49.52734375 38.46533203 C-47.92293414 36.80129909 -46.30783707 35.14852108 -44.6875 33.5 C-44.15987061 32.95915771 -43.63224121 32.41831543 -43.08862305 31.86108398 C-41.76441076 30.53430994 -40.38608869 29.26199274 -39 28 C-38.34 28 -37.68 28 -37 28 C-37 27.34 -37 26.68 -37 26 C-36.34 26 -35.68 26 -35 26 C-34.34 27.65 -33.68 29.3 -33 31 C-32.34 31 -31.68 31 -31 31 C-31.391875 29.783125 -31.78375 28.56625 -32.1875 27.3125 C-33.05006155 23.96338172 -33.13503653 23.29462515 -31.625 20 C-31.08875 19.34 -30.5525 18.68 -30 18 C-30.56203125 18.33773438 -31.1240625 18.67546875 -31.703125 19.0234375 C-34.39726644 20.1689058 -35.88038233 20.0470026 -38.75 19.625 C-39.54921875 19.51414062 -40.3484375 19.40328125 -41.171875 19.2890625 C-42.07679687 19.14597656 -42.07679687 19.14597656 -43 19 C-41.68 20.32 -40.36 21.64 -39 23 C-41.16615659 27.82604496 -44.64072688 31.08472271 -48.3125 34.8125 C-48.97701172 35.51826172 -49.64152344 36.22402344 -50.32617188 36.95117188 C-51.30360352 37.94407227 -51.30360352 37.94407227 -52.30078125 38.95703125 C-52.89028564 39.56522705 -53.47979004 40.17342285 -54.0871582 40.80004883 C-56 42 -56 42 -58.73120117 41.69018555 C-59.85425659 41.3485437 -59.85425659 41.3485437 -61 41 C-61.82950155 32.70498445 -59.50878606 26.96180402 -55 20 C-50.48596012 14.83668041 -43.79934701 10.25692154 -37 9 C-29.18336321 8.5049146 -23.03432049 8.55767295 -16 12 C-13.16926919 11.80486248 -13.16926919 11.80486248 -11 11 C-10.67 9.68 -10.34 8.36 -10 7 C-11.65 6.01 -13.3 5.02 -15 4 C-14.67 3.01 -14.34 2.02 -14 1 C-13.319375 1.165 -12.63875 1.33 -11.9375 1.5 C-8.54684118 2.07713342 -5.43349708 2.19434889 -2 2 C-1.34 1.34 -0.68 0.68 0 0 Z " fill="#FC9F7C" transform="translate(67,2)"/>
<path d="M0 0 C-0.185625 1.216875 -0.37125 2.43375 -0.5625 3.6875 C-0.98993182 7.02977939 -0.92258883 9.71968417 0 13 C-2.46800047 11.84826645 -4.04783565 10.95216435 -6 9 C-11.07309251 13.15804278 -11.07309251 13.15804278 -13.4375 18.9375 C-13.293125 19.618125 -13.14875 20.29875 -13 21 C-15.97 21 -18.94 21 -22 21 C-22 18 -22 18 -20.42578125 16.38671875 C-19.72839844 15.82597656 -19.03101563 15.26523438 -18.3125 14.6875 C-14.7383578 11.70375784 -11.86035359 8.66482803 -9 5 C-10.32 4.34 -11.64 3.68 -13 3 C-13 2.34 -13 1.68 -13 1 C-12.06027344 1.01740234 -12.06027344 1.01740234 -11.1015625 1.03515625 C-9.87566406 1.04869141 -9.87566406 1.04869141 -8.625 1.0625 C-7.40683594 1.07990234 -7.40683594 1.07990234 -6.1640625 1.09765625 C-3.79725153 0.9908507 -2.35519775 0 0 0 Z " fill="#FBF2EF" transform="translate(49,52)"/>
</svg>
