<?xml version="1.0" encoding="UTF-8"?>
<svg version="1.1" xmlns="http://www.w3.org/2000/svg" width="255" height="200">
<path d="M0 0 C1.13695312 0.3403125 2.27390625 0.680625 3.4453125 1.03125 C27.906217 8.98776399 48.86837046 26.96087129 61.00390625 49.62890625 C72.81352226 72.99282887 76.53970636 99.97084814 68.875 125.25 C59.52764001 153.58729721 41.0722578 174.54957133 14.875 188.3125 C1.01191965 194.96751597 -12.27214122 197.39521261 -27.5625 197.375 C-28.55537018 197.37468277 -28.55537018 197.37468277 -29.56829834 197.37435913 C-40.21256282 197.34044587 -49.91036709 196.45410856 -60 193 C-61.0415625 192.649375 -62.083125 192.29875 -63.15625 191.9375 C-75.07581371 187.4206127 -85.98871036 180.58375684 -95.14453125 171.75 C-96.89090351 169.93440111 -96.89090351 169.93440111 -99 169 C-99 168.34 -99 167.68 -99 167 C-99.66 167 -100.32 167 -101 167 C-102.64195107 165.1627239 -104.14019578 163.33447304 -105.625 161.375 C-106.29160645 160.49690674 -106.29160645 160.49690674 -106.97167969 159.60107422 C-124.74424091 135.69017313 -131.37104872 108.75502662 -127.22631836 79.17114258 C-123.67257872 57.84129594 -112.31132665 39.00176639 -97 24 C-96.2678125 23.28199219 -95.535625 22.56398438 -94.78125 21.82421875 C-81.1679535 9.0734085 -65.11539453 1.80368556 -47 -2 C-46.2479126 -2.17200928 -45.4958252 -2.34401855 -44.72094727 -2.52124023 C-30.69212081 -4.98965914 -13.58943342 -4.37685648 0 0 Z " fill="#FD6102" transform="translate(173,5)"/>
<path d="M0 0 C5.84797284 4.84256426 10.317768 9.85726065 13 17 C13.4125 18.0725 13.825 19.145 14.25 20.25 C16.42369674 31.11848368 15.15988348 41.96505782 9.45703125 51.609375 C5.69657459 56.73805273 1.27733994 60.50089417 -4 64 C-4.99 64.66 -5.98 65.32 -7 66 C-5.7625 66.226875 -4.525 66.45375 -3.25 66.6875 C10.22649875 69.73878274 22.03415649 76.50524654 30 88 C32.96411352 93.65637047 34 97.50824402 34 104 C-0.65 104 -35.3 104 -71 104 C-71 92.94138168 -67.95650781 88.33401155 -60.48046875 80.39453125 C-51.68629904 71.90504143 -42.02440041 67.81433261 -30 66 C-30.556875 65.74347656 -31.11375 65.48695312 -31.6875 65.22265625 C-41.5945994 60.25237159 -48.01400799 52.46031069 -51.6796875 42.07421875 C-54.5632008 32.2189233 -53.35023315 21.9949923 -48.93359375 12.7734375 C-43.80804777 4.01095295 -36.89855534 -1.86431617 -27.375 -5.3125 C-17.75865977 -7.36249501 -8.02943379 -5.61526848 0 0 Z " fill="#FEFCFA" transform="translate(165,28)"/>
<path d="M0 0 C2 2 2 2 2.125 4.625 C2.08375 5.40875 2.0425 6.1925 2 7 C-3.79318703 8.99687504 -8.8770014 9.2460985 -14.97436523 9.13525391 C-15.95074448 9.12579239 -16.92712372 9.11633087 -17.93309021 9.10658264 C-21.14178834 9.0730602 -24.35008755 9.02490244 -27.55859375 8.9765625 C-29.79060338 8.95037937 -32.02262395 8.92511366 -34.25465393 8.90072632 C-40.11552826 8.83423233 -45.97617127 8.75530545 -51.83685303 8.67376709 C-57.822786 8.59269373 -63.80885422 8.52340909 -69.79492188 8.453125 C-81.53011001 8.31360486 -93.26508753 8.16094653 -105 8 C-105 7.34 -105 6.68 -105 6 C-70.35 6 -35.7 6 0 6 C0 4.02 0 2.04 0 0 Z " fill="#F2803A" transform="translate(199,126)"/>
<path d="M0 0 C0 0.66 0 1.32 0 2 C-0.66 2 -1.32 2 -2 2 C-2.433125 2.928125 -2.433125 2.928125 -2.875 3.875 C-4 6 -4 6 -6 8 C-6 7.34 -6 6.68 -6 6 C-7.98 6.99 -7.98 6.99 -10 8 C-9.67 9.65 -9.34 11.3 -9 13 C-12.82517513 15.39073445 -16.59665524 15.55966552 -21 16 C-17.30295082 11.0353911 -13.3039486 7.55198231 -8.25 4.0625 C-7.38145386 3.4603064 -7.38145386 3.4603064 -6.49536133 2.84594727 C-2.27128528 0 -2.27128528 0 0 0 Z " fill="#F6640B" transform="translate(96,15)"/>
<path d="M0 0 C4.455 0.99 4.455 0.99 9 2 C9.33 1.34 9.66 0.68 10 0 C11.32 0 12.64 0 14 0 C14.33 2.64 14.66 5.28 15 8 C15.639375 8.12375 16.27875 8.2475 16.9375 8.375 C17.618125 8.58125 18.29875 8.7875 19 9 C19.33 9.66 19.66 10.32 20 11 C14.71537485 9.71418675 10.62566057 7.86609559 6.0625 4.9375 C5.47404297 4.57333984 4.88558594 4.20917969 4.27929688 3.83398438 C2.83065571 2.92374643 1.41199782 1.96610377 0 1 C0 0.67 0 0.34 0 0 Z " fill="#EF6515" transform="translate(88,184)"/>
<path d="M0 0 C6.6 0 13.2 0 20 0 C20 0.66 20 1.32 20 2 C22.475 2.495 22.475 2.495 25 3 C24.67 3.66 24.34 4.32 24 5 C23.30261719 4.68675781 22.60523438 4.37351562 21.88671875 4.05078125 C13.24601135 0.90551699 4.38568679 1.4943814 -4 5 C-5.34106253 5.65097889 -6.67702256 6.31301171 -8 7 C-7 4 -7 4 -4 2 C-2.68 2 -1.36 2 0 2 C0 1.34 0 0.68 0 0 Z " fill="#EA712B" transform="translate(136,21)"/>
<path d="M0 0 C7.55739165 2.85501462 15.49614545 6.98245236 21 13 C20.01 13.33 19.02 13.66 18 14 C17.34 13.01 16.68 12.02 16 11 C13.69855891 9.92863949 11.3659787 8.92010283 9 8 C9 7.34 9 6.68 9 6 C8.01 6.33 7.02 6.66 6 7 C6 6.01 6 5.02 6 4 C4.02 3.34 2.04 2.68 0 2 C0 1.34 0 0.68 0 0 Z " fill="#E46A22" transform="translate(187,11)"/>
<path d="M0 0 C0.66 0.33 1.32 0.66 2 1 C-3 4 -3 4 -8 7 C-8.87269531 7.58136719 -9.74539062 8.16273438 -10.64453125 8.76171875 C-11.42183594 9.17035156 -12.19914063 9.57898438 -13 10 C-13.99 9.67 -14.98 9.34 -16 9 C-15.34 9 -14.68 9 -14 9 C-14 8.34 -14 7.68 -14 7 C-13.34 7 -12.68 7 -12 7 C-11.67 6.01 -11.34 5.02 -11 4 C-8.36 3.67 -5.72 3.34 -3 3 C-3 2.34 -3 1.68 -3 1 C-2.01 0.67 -1.02 0.34 0 0 Z " fill="#E36A21" transform="translate(200,184)"/>
<path d="M0 0 C0 0.66 0 1.32 0 2 C-0.66 2 -1.32 2 -2 2 C-2.433125 2.928125 -2.433125 2.928125 -2.875 3.875 C-4 6 -4 6 -6 8 C-6 7.34 -6 6.68 -6 6 C-6.721875 6.45375 -7.44375 6.9075 -8.1875 7.375 C-10.74894081 8.85494358 -13.23277989 9.97217539 -16 11 C-12.20918993 6.84233734 -5.90642573 0 0 0 Z " fill="#E66822" transform="translate(96,15)"/>
<path d="M0 0 C0.763125 0.20625 1.52625 0.4125 2.3125 0.625 C-0.19981378 3.13731378 -2.06601766 3.41161713 -5.5 4.25 C-6.53769531 4.51039063 -7.57539063 4.77078125 -8.64453125 5.0390625 C-11.42337837 5.57414218 -13.86926362 5.73960481 -16.6875 5.625 C-16.6875 4.965 -16.6875 4.305 -16.6875 3.625 C-15.92824219 3.50382813 -15.16898438 3.38265625 -14.38671875 3.2578125 C-12.89591797 3.00644531 -12.89591797 3.00644531 -11.375 2.75 C-10.38886719 2.58757812 -9.40273437 2.42515625 -8.38671875 2.2578125 C-4.94129618 1.45005786 -3.59056065 -0.50100846 0 0 Z " fill="#E56A25" transform="translate(176.6875,195.375)"/>
<path d="M0 0 C1.65 0.33 3.3 0.66 5 1 C4.06862408 2.29608947 3.1296434 3.58671632 2.1875 4.875 C1.66542969 5.59429687 1.14335938 6.31359375 0.60546875 7.0546875 C-1 9 -1 9 -4 11 C-4 9.68 -4 8.36 -4 7 C-3.34 7 -2.68 7 -2 7 C-1.34 4.69 -0.68 2.38 0 0 Z " fill="#F16D21" transform="translate(101,106)"/>
<path d="M0 0 C2.34211663 2.89399469 3.86862171 5.67155428 5.25 9.125 C5.60578125 9.99382812 5.9615625 10.86265625 6.328125 11.7578125 C7 14 7 14 6 16 C4 14.1875 4 14.1875 2 12 C2 9.66666667 2 7.33333333 2 5 C1.34 5 0.68 5 0 5 C0 3.35 0 1.7 0 0 Z " fill="#E5671B" transform="translate(233,55)"/>
<path d="M0 0 C-0.65226562 0.31453125 -1.30453125 0.6290625 -1.9765625 0.953125 C-6.89655855 3.3623266 -11.5332174 5.82623341 -16 9 C-16.33 7.68 -16.66 6.36 -17 5 C-15.68 5 -14.36 5 -13 5 C-13 4.34 -13 3.68 -13 3 C-11.88625 2.525625 -10.7725 2.05125 -9.625 1.5625 C-3.53773585 -1.06132075 -3.53773585 -1.06132075 0 0 Z " fill="#E96A21" transform="translate(122,98)"/>
<path d="M0 0 C-1.65 0.33 -3.3 0.66 -5 1 C-5.33 2.65 -5.66 4.3 -6 6 C-6.99 6.33 -7.98 6.66 -9 7 C-9.33 6.01 -9.66 5.02 -10 4 C-10.66 3.67 -11.32 3.34 -12 3 C-10.5682384 2.30062798 -9.12932968 1.61587282 -7.6875 0.9375 C-6.48673828 0.36322266 -6.48673828 0.36322266 -5.26171875 -0.22265625 C-3 -1 -3 -1 0 0 Z " fill="#EB691C" transform="translate(114,8)"/>
<path d="M0 0 C0.66 0.99 1.32 1.98 2 3 C1.21625 3.391875 0.4325 3.78375 -0.375 4.1875 C-3.41535531 6.28679295 -3.68551032 7.66995949 -5 11 C-7.125 11.8125 -7.125 11.8125 -9 12 C-7.55575365 8.76138697 -5.74227753 6.38030837 -3.375 3.75 C-2.74335937 3.04359375 -2.11171875 2.3371875 -1.4609375 1.609375 C-0.97882813 1.07828125 -0.49671875 0.5471875 0 0 Z " fill="#E6681C" transform="translate(73,32)"/>
<path d="M0 0 C1.32 0.33 2.64 0.66 4 1 C1.69 3.31 -0.62 5.62 -3 8 C-3.66 6.68 -4.32 5.36 -5 4 C-4.67 3.34 -4.34 2.68 -4 2 C-3.01 2 -2.02 2 -1 2 C-0.67 1.34 -0.34 0.68 0 0 Z " fill="#ED6418" transform="translate(214,170)"/>
<path d="M0 0 C0.66 0.33 1.32 0.66 2 1 C-1.33562767 5.51290803 -3.33289301 7.68206814 -9 9 C-8.06725891 7.87105124 -7.12859878 6.74699124 -6.1875 5.625 C-5.66542969 4.99851562 -5.14335938 4.37203125 -4.60546875 3.7265625 C-3 2 -3 2 0 0 Z " fill="#FEEFDE" transform="translate(130,26)"/>
<path d="M0 0 C2.37287264 4.58755377 3.1181816 8.00911138 3.0625 13.1875 C3.05347656 14.27417969 3.04445312 15.36085938 3.03515625 16.48046875 C3.02355469 17.31191406 3.01195312 18.14335938 3 19 C2.67 19 2.34 19 2 19 C1.93941406 18.37351562 1.87882813 17.74703125 1.81640625 17.1015625 C1.73261719 16.28429687 1.64882812 15.46703125 1.5625 14.625 C1.48128906 13.81289063 1.40007812 13.00078125 1.31640625 12.1640625 C1.10909886 9.95727195 1.10909886 9.95727195 0 8 C-0.13415472 5.3276379 -0.04318541 2.67749512 0 0 Z " fill="#FCD3B4" transform="translate(177,45)"/>
<path d="M0 0 C0.66 0.33 1.32 0.66 2 1 C1.34 2.65 0.68 4.3 0 6 C-1.98 6 -3.96 6 -6 6 C-6.33 5.34 -6.66 4.68 -7 4 C-1.7265625 0.77734375 -1.7265625 0.77734375 0 0 Z " fill="#E3783A" transform="translate(164,89)"/>
<path d="M0 0 C0 0.66 0 1.32 0 2 C-2.75 4.6875 -2.75 4.6875 -6 7 C-8.203125 6.64453125 -8.203125 6.64453125 -10 6 C-8.71283353 4.99421411 -7.42011342 3.99553202 -6.125 3 C-5.40570313 2.443125 -4.68640625 1.88625 -3.9453125 1.3125 C-2 0 -2 0 0 0 Z " fill="#FDE8D3" transform="translate(116,101)"/>
<path d="M0 0 C0.33 0.66 0.66 1.32 1 2 C-0.01553817 5.0466145 -1.20762558 7.31143836 -3 10 C-3.66 10 -4.32 10 -5 10 C-3.84414715 6.08788267 -2.64465038 3.1254959 0 0 Z " fill="#E66822" transform="translate(61,47)"/>
<path d="M0 0 C0.99 0.33 1.98 0.66 3 1 C1.625 2.5 1.625 2.5 0 4 C-0.66 4 -1.32 4 -2 4 C-2.33 4.66 -2.66 5.32 -3 6 C-3.33 5.01 -3.66 4.02 -4 3 C-2.1875 1.4375 -2.1875 1.4375 0 0 Z " fill="#F55E0C" transform="translate(65,43)"/>
<path d="M0 0 C-2.97 2.475 -2.97 2.475 -6 5 C-6.66 4.67 -7.32 4.34 -8 4 C-7.25 2.0625 -7.25 2.0625 -6 0 C-3.40292416 -1.05506206 -2.5386068 -1.2693034 0 0 Z " fill="#E06920" transform="translate(210,179)"/>
<path d="M0 0 C0.66 0 1.32 0 2 0 C2 0.66 2 1.32 2 2 C2.99 2 3.98 2 5 2 C5.33 3.98 5.66 5.96 6 8 C1.125 3.375 1.125 3.375 0 0 Z " fill="#E3681F" transform="translate(63,159)"/>
<path d="M0 0 C0.33 0 0.66 0 1 0 C1 2.31 1 4.62 1 7 C0.01 7.33 -0.98 7.66 -2 8 C-1.125 2.25 -1.125 2.25 0 0 Z " fill="#FDE5CE" transform="translate(116,41)"/>
<path d="M0 0 C1.65 0 3.3 0 5 0 C3.02 2.97 3.02 2.97 1 6 C0.34 5.01 -0.32 4.02 -1 3 C-0.67 2.01 -0.34 1.02 0 0 Z " fill="#F26918" transform="translate(117,33)"/>
</svg>
