<?xml version="1.0" encoding="UTF-8"?>
<svg version="1.1" viewBox="0 0 2048 758" width="505" height="187" xmlns="http://www.w3.org/2000/svg">
<path transform="translate(1761,125)" d="m0 0h7l-2 9-5 12-12 14-2 2 1 5 12 38 1 9-7 8-4-1-11-16-8-12-6-8-7 6-226 226-9 7-8 5-13 2-9-2-9-6-7-9-3-9v-9l4-11 9-10 3-4h2l2-4 93-93 5-4 3-4 4 2 7 11 7 10 4 4 7-6-11-37 8-10 5-9 3-10-13 3-6 4-9 8-12-3-18-5-5-2h-5l-5 5 2 4 17 11 9 6-6 7-9 10-71 71-8 7-5 4-9 3-9-2-5-6-2-5v-14l4-26 10-29 10-19 7-11 12-14 7-8 8-7 14-11 11-7 17-9 17-6 20-5 19-2h25l20 3 22 6 19 8 13 7 4-1 12-11 9-10 7-7-5-5-33-22 2-4 8-7 6 1 36 12 8 2 10-8 7-6z" fill="#FC9C78"/>
<path transform="translate(1713,231)" d="m0 0 5 4 14 21 11 23 7 22 3 20 1 10v17l-3 25-8 26-6 14-12 21-13 16-7 8-12 11-15 11-24 13-26 9-27 4-16 1-6-4-4-8 1-7 4-6 43-43 4 2 7 12 8 12 1 3 5-1 5-6-12-35 1-5 9-11 4-9 3-9-15 5-9 6-7 6-38-12-3 1-5 6 4 4 16 10 9 6-1 4-60 60-10 5-4 1h-11l-10-3-11-8-4-5-4-12v-8l4-11 6-8z" fill="#D34A24"/>
<path transform="translate(651,251)" d="m0 0h27l6 24 14 59 2 3 17-72 4-13 1-1h25l-1 9-19 79-17 71-5 14-6 10-5 6-10 6-8 3h-10v-22l11-6 5-6 2-7v-16l-9-38-17-70-7-28z" fill="#D44B25"/>
<path transform="translate(1e3 251)" d="m0 0h11l10 3 8 6 7 8 3 8 1 37v87l-7 1h-32l-10-3-9-7-6-8-3-7v-44l4-8 8-8 8-4h21l-1-32-4-4-10 1-1 6-1 21h-23l-2-1v-24l3-10 6-8 8-6 6-3zm-2 85v35l3 5 8 1 5-3 1-6-1-32z" fill="#D44B25"/>
<path transform="translate(519,251)" d="m0 0h12l10 3 8 6 6 7 3 6 1 10 1 48v69l-1 1h-39l-11-4-10-9-5-8-2-9v-37l4-9 6-7 10-6 21-1v-30l-2-4-7-1-5 2-1 3-1 22-1 1h-18l-7-2v-15l1-11 4-9 7-8 9-6zm-1 85-1 9v18l1 9 3 4h10l3-3v-37z" fill="#D34A25"/>
<path transform="translate(415,211)" d="m0 0h64v17l-2 7h-37l1 5v35l37 1 1 1v22l-5 1h-33v76l37 1 1 1v22l-2 1h-62z" fill="#D34A24"/>
<path transform="translate(1160,251)" d="m0 0h13l9 2 9 6 7 8 4 10v42l-19 1h-27l1 48 2 5 5 3h6l5-3 1-3v-17h26v23l-5 10-4 5-9 6-7 3-6 1h-10l-10-3-8-6-8-9-3-7-1-5v-92l3-9 6-9 8-6 6-3zm1 24-4 4-1 6v9l1 2h18l2-6v-7l-2-6-5-2z" fill="#D34A24"/>
<path transform="translate(1304,251)" d="m0 0h10l9 2 10 6 7 7 5 11 2 12v13l-1 1-9 1h-16l-1-1-1-19-3-6-3-2h-7l-5 5-2 7 1 8 9 10 14 14 7 8 15 15 2 4v18l-2 11-5 10-5 6-10 6-5 2-6 1h-10l-9-2-9-6-8-9-4-10-1-4v-25l24-1 2 1v19l3 9 5 3h6l5-2 1-5v-13l-4-6-24-24-7-8-11-11v-26l4-11 7-9 8-6 7-3z" fill="#D44B25"/>
<path transform="translate(603,251)" d="m0 0h11l8 2 8 4 9 8 5 10 2 9v19l-14 1h-11l-2-2v-17l-4-8-9-1-5 4-2 12 4 8 9 9 7 8 23 23 4 6v25l-4 11-6 8-7 6-10 4-6 1h-10l-10-3-11-8-7-11-2-8v-26h26v18l2 9 3 3 9 1 5-4 1-9v-7l-4-6-41-41-2-4v-13l2-16 5-10 8-8 12-6z" fill="#D34A24"/>
<path transform="translate(1052,251)" d="m0 0h25l2 6 5 42v8l2-1 3-19 4-33 1-2h25v10l-6 51-11 78-1 8-2 2h-24l-2-2-9-55-7-46-5-39z" fill="#D44B25"/>
<path transform="translate(834,211)" d="m0 0h27v40h9l9 1v22l-1 1h-17l1 93 5 6 8 5v21l-1 1-10-1-9-4-9-7-8-11-3-9-1-8v-86h-18v-16l1-8h17z" fill="#D44B25"/>
<path transform="translate(895,251)" d="m0 0h23l2 5v3h12l13 2 9 5 7 7 4 8 1 4v18l-4 1-22-1-1-16-1-2-4-1h-13l-1 20-1 96-1 1h-24l-1-1v-55l1-93z" fill="#D44B25"/>
<path transform="translate(1216,211)" d="m0 0h26v156l2 7 5 2 9 1 1 1v22l-1 1h-12l-10-3-9-6-6-7-4-8-1-3-1-42z" fill="#D34924"/>
<path transform="translate(212,523)" d="m0 0h13l6 4 3 4 4-2 5-4 4-2h12l6 3 5 8 1 6 1 42 1 2v6l-1 1h-9l-5-5-1-43-2-10-4-2h-6l-5 4-2 6-1 7-1 39h-13l-1-45-1-8-4-3-9 1-4 6-2 9-1 40h-12l-1-1v-60l3-2h6l2 1 1 7 4-5z" fill="#D34A24"/>
<path transform="translate(1406,501)" d="m0 0 3 1 1 80 1 9h-9l-3-3-2-3-7 5-3 1h-13l-5-3-6-7-4-11-1-6v-14l3-12 6-9 8-5 3-1h15l2 1v-21zm-27 30-4 5-2 5-1 6v20l3 11 5 5 2 1h6l6-4 1-2 1-9v-21l-1-13-2-3-3-1z" fill="#D54D27"/>
<path transform="translate(1530,501)" d="m0 0h6l1 77 1 13h-9l-5-5-10 5h-12l-6-3-6-7-4-10-1-5v-17l4-13 4-6 5-4 7-3h15l3 1v-20zm-23 30-5 5-2 6-1 20 2 13 5 8 9 1 6-4 2-7v-37l-5-5z" fill="#D44B25"/>
<path transform="translate(845,501)" d="m0 0 2 1 1 76 1 13h-9l-3-3v-2l-7 3-5 2h-12l-6-3-5-6-4-9-2-11v-11l3-12 4-8 6-5 8-3h12l5 1v-21l2-1zm-24 29-5 2-3 4-2 7-1 9v12l2 10 3 6 5 4 9-1 4-4 1-4v-39l-5-5z" fill="#D44C26"/>
<path transform="translate(1219,501)" d="m0 0 2 1v28l8-6 3-1h11l8 5 5 8 2 6 1 7v13l-2 12-6 10-6 5-6 2h-16l-13-4-2-3v-81l1-1zm11 29-6 5-3 10v34l4 4 10 1 5-3 3-4 1-5 1-17-1-14-4-8-4-3z" fill="#D44C26"/>
<path transform="translate(967,523)" d="m0 0h11l6 3 5 6 4 9 1 6v18l-4 13-7 9-9 4h-16l-2-1v21l-11 1-2-1v-85l2-2h7l1 1 1 7 8-7zm-1 7-5 3-4 6-1 5v36l1 2 10 2 6-1 4-5 2-6 1-7v-18l-2-9-4-6-3-2z" fill="#D54E28"/>
<path transform="translate(120,507)" d="m0 0h13l1 1v59l2 9 3 5 5 2h7l5-3 3-6 1-10 1-57h11l1 1v49l-1 15-3 9-4 5-8 4-3 1h-16l-10-4-4-5-4-11z" fill="#D44C26"/>
<path transform="translate(320,501)" d="m0 0 3 1v13l-1 15 9-6 2-1h13l7 4 4 8 1 4 1 43 1 1v6l-2 2h-8l-5-4-1-10-1-41-5-5h-6l-4 2-4 8-1 46h-13v-84z" fill="#D54E28"/>
<path transform="translate(1442,523)" d="m0 0h16l7 3 4 4 3 9 1 41 1 10-1 1h-8l-4-4-5 1-7 3h-12l-6-3-5-6-3-8 1-8 4-7 7-4 10-3 6-1h8l-2-19h-13l-3 3-2 9h-7l-4-2-1-2v-8l7-6zm8 36-8 3-4 6v9l4 6 2 1 9-1 5-5 1-5v-13l-1-1z" fill="#D44C26"/>
<path transform="translate(390,523)" d="m0 0h14l8 3 7 8 4 10v26l-5 12-7 6-7 3h-15l-7-3-7-8-4-10-1-5v-14l3-11 4-8 5-5zm6 7-6 3-4 7-1 5v26l3 9 3 3 9 1 6-4 2-4 1-6v-25l-3-9-5-5z" fill="#D44C26"/>
<path transform="translate(577,523)" d="m0 0h14l10 5 6 9 2 5 1 6v17l-3 12-6 9-10 5h-16l-8-4-6-8-3-7-1-5v-18l4-12 6-9 7-4zm5 7-5 3-4 6-2 14v13l2 10 3 5 5 3h6l6-5 2-6 1-8v-15l-2-12-4-6-5-2z" fill="#D44C26"/>
<path transform="translate(1022,523)" d="m0 0h14l9 4 7 8 3 9v25l-3 10-8 9-8 3h-15l-8-4-6-7-4-11-1-6v-12l3-11 4-8 8-7zm6 7-6 3-3 4-2 7v27l3 9 3 3 9 1 6-4 3-8 1-10v-9l-2-13-3-6-3-3z" fill="#D44C26"/>
<path transform="translate(647,523)" d="m0 0h13l7 4 3 4 1 4 1 42 2 7v5l-2 2h-8l-4-3-1-3-1-43-2-10-10-1-5 2-3 9-1 8-1 37h-12l-1-1v-60l1-1 11-1-1 9 7-7z" fill="#D54D27"/>
<path transform="translate(881,523)" d="m0 0h14l8 4 5 8 1 11-3 8-7 6-10 3h-15l3 13 4 6 3 1h8l7-3 6-5 2 1-1 6-4 5-10 4h-14l-6-3-7-8-4-11-1-7v-9l3-12 5-10 8-6zm1 8-5 6-3 10v7l1 1h12l6-4 3-5-1-9-3-5-2-1z" fill="#D54D27"/>
<path transform="translate(1569,523)" d="m0 0h14l6 3 7 8 1 3v11l-4 7-6 5-9 3-16 1 3 12 3 5 4 2h9l7-4 4-4 3 1-1 6-5 5-8 4h-14l-7-3-7-8-4-11v-21l4-12 6-8zm1 8-4 5-4 11v7l1 1h13l7-6 1-3v-7l-3-6-3-2z" fill="#D44C26"/>
<path transform="translate(740,523)" d="m0 0h13l8 4 5 8 1 5v7l-3 7-7 6-11 3h-14l3 13 4 6 3 1h8l7-3 5-4h3l-1 6-4 5-10 4h-14l-6-3-7-8-4-11-1-6v-10l3-12 4-8 4-5 7-4zm0 8-4 4-4 12v7l1 1h12l5-3 3-3 1-9-3-7-2-2z" fill="#D54D27"/>
<path transform="translate(1624,523)" d="m0 0h14l9 4 3 4 1 8-2 4-7 3-5-1-1-10-2-3-7-1-4 2-1 2 1 9 1 3 5 2 12 7 6 5 4 8v7l-4 8-5 4-8 3h-16l-6-3-5-5-1-9 5-4 2-1h6v7l2 6 4 1h7l5-4v-8l-3-5-13-8-8-6-4-5-1-10 3-6 6-5z" fill="#D54D27"/>
<path transform="translate(1082,523)" d="m0 0h15l8 4 4 5v8l-5 5-7 1-2-4-1-10-9-1-5 4v6l4 6 17 10 7 8 1 2v11l-4 6-6 5-6 2h-16l-8-4-4-6v-6l5-5 7-1 1 1 1 9 2 3 3 1h7l5-5-1-9-7-6-13-8-7-8-1-2v-9l5-8z" fill="#D44C27"/>
<path transform="translate(1137,523)" d="m0 0h14l8 3 4 4 1 3v7l-3 4-9 2-1-1-1-9-3-4-8-1-4 4 1 9 6 5 14 8 7 8 1 3v9l-4 7-5 4-7 3h-16l-8-4-4-5-1-7 5-5 2-1h6l1 9 5 5h7l5-3 1-6-3-7-8-6-10-6-5-5-3-4v-10l5-8z" fill="#D44C26"/>
<path transform="translate(510,527)" d="m0 0h39l2 1-1 7-10 17-18 27 29 1 1 5-2 2h-41l-2-2 1-5 8-14 13-21 6-10h-25l-1-1z" fill="#D44C26"/>
<path transform="translate(458,523)" d="m0 0h10l5 3 3 6v8l-3 3-10 1-1-2-1-10h-7l-3 3-1 5-2 47h-12l-1-1v-60l5-2h6l1 5-1 3 5-5z" fill="#D7512B"/>
<path transform="translate(1310,503)" d="m0 0 5 1v76l1 11h-9l-5-5-1-4v-75l2-3z" fill="#D64F29"/>
<path transform="translate(700,514)" d="m0 0h2l1 4-1 9h11l2 2-1 5-5 1h-7l1 47 4 4-1 4-2 1h-10l-4-4-1-11-1-41-8-1 2-5 9-6 3-1 2-4z" fill="#D54E28"/>
<path transform="translate(1178,527)" d="m0 0h12l1 1 1 63h-9l-5-4-1-35v-24z" fill="#D54E28"/>
<path transform="translate(484,527)" d="m0 0h13l1 54 1 9-1 1h-9l-5-5z" fill="#D34923"/>
<path transform="translate(1334,527)" d="m0 0h12l1 64h-9l-4-3-1-3v-57z" fill="#D64F29"/>
<path transform="translate(1272,527)" d="m0 0h13l1 64h-9l-4-3-1-7z" fill="#D44C26"/>
<path transform="translate(1274,499)" d="m0 0h9l4 3v9l-3 3h-11l-3-3-1-6 3-5z" fill="#D54D28"/>
<path transform="translate(1335,499)" d="m0 0h9l4 3v8l-2 3-3 1h-8l-4-3v-9z" fill="#D54D27"/>
<path transform="translate(1179,499)" d="m0 0h9l4 2 1 4-1 7-3 2h-9l-5-5 1-7z" fill="#D54E28"/>
<path transform="translate(486,499)" d="m0 0h9l4 3v8l-4 4h-9l-4-4v-7z" fill="#D54D27"/>
</svg>
