<?xml version="1.0" encoding="UTF-8"?>
<svg version="1.1" xmlns="http://www.w3.org/2000/svg" width="262" height="260">
<path d="M0 0 C2.00348966 1.66247014 4.00334402 3.32932867 6 5 C7.94162452 5.81200229 9.90250498 6.5786629 11.875 7.3125 C19.7105414 10.44282795 24.91489804 14.90858464 28.375 22.6875 C33.41173219 37.394758 32.66620264 52.4267346 28.5234375 67.23046875 C27.82051992 70.94963713 28.31819794 73.63639588 30 77 C30.73432256 84.60806323 30.50394995 92.52153904 26 99 C25.15824219 99.30679688 24.31648437 99.61359375 23.44921875 99.9296875 C20.75770938 100.76230012 20.75770938 100.76230012 20.03125 103.46875 C19.8559375 104.4690625 19.680625 105.469375 19.5 106.5 C18.08538936 113.20929618 15.95443784 120.04556216 11 125 C10.52669574 128.08204601 10.62963093 131.19819933 10.625 134.3125 C10.60050781 135.16779297 10.57601562 136.02308594 10.55078125 136.90429688 C10.53071516 141.22185047 10.61022622 143.40179507 13.0234375 147.10546875 C14.00183594 148.04326172 14.00183594 148.04326172 15 149 C13.66511872 152.59391114 12.03977277 155.75490696 10 159 C5.10145107 157.33382689 2.9655788 155.41999113 0.2265625 151.09375 C-2.14635346 145.10856069 -1.99626883 138.64391183 -1.98999023 132.26904297 C-1.99689007 130.70496872 -2.04305817 129.14074265 -2.12133789 127.57861328 C-2.35609307 121.59511444 -2.35609307 121.59511444 -0.57421875 118.6171875 C0.04839844 118.04226562 0.67101562 117.46734375 1.3125 116.875 C7.43998947 110.57490519 8.48430053 104.29179321 9.86328125 95.79296875 C10.23839844 94.87128906 10.61351562 93.94960937 11 93 C14.04296875 91.80078125 14.04296875 91.80078125 17 91 C18.00496852 87.98509443 18.10335303 85.95818308 18.0625 82.8125 C18.05347656 81.91144531 18.04445312 81.01039062 18.03515625 80.08203125 C18.02355469 79.39496094 18.01195312 78.70789063 18 78 C16.68 77.67 15.36 77.34 14 77 C14.27714844 75.83082031 14.55429688 74.66164063 14.83984375 73.45703125 C15.20577401 71.90886477 15.57165693 70.36068709 15.9375 68.8125 C16.11990234 68.04357422 16.30230469 67.27464844 16.49023438 66.48242188 C16.66748047 65.73154297 16.84472656 64.98066406 17.02734375 64.20703125 C17.18968506 63.5210083 17.35202637 62.83498535 17.51928711 62.12817383 C18.85095345 56.23272666 19.21614221 50.78515034 19.25 44.75 C19.270625 43.84636719 19.29125 42.94273438 19.3125 42.01171875 C19.35517056 34.59770968 18.4302697 28.02141639 13.6875 22.125 C9.79136208 19.04433281 6.26458726 17.31060038 1.4375 16.125 C-2.57079996 14.81319274 -4.05744886 12.94255114 -7 10 C-18.76695561 5.76623185 -32.69485241 6.93705491 -44 12 C-51.35033238 16.03969487 -55.64916065 21.63465601 -58.11328125 29.59765625 C-59.27911105 34.574321 -59.34094765 39.47037046 -59.3125 44.5625 C-59.31121094 45.52542969 -59.30992188 46.48835938 -59.30859375 47.48046875 C-59.21433869 54.54959841 -58.35310835 61.05597001 -56.65625 67.90625 C-55.98100995 71.08952454 -55.66483809 73.76010158 -56 77 C-56.99 77.66 -57.98 78.32 -59 79 C-59.43995262 81.06673485 -59.43995262 81.06673485 -59.3125 83.375 C-59.30863281 84.14585938 -59.30476563 84.91671875 -59.30078125 85.7109375 C-58.95940506 88.30894334 -58.54958716 89.87458438 -57 92 C-54.44480079 92.81171228 -54.44480079 92.81171228 -52 93 C-51.65388672 94.57587891 -51.65388672 94.57587891 -51.30078125 96.18359375 C-48.60955974 109.28742766 -48.60955974 109.28742766 -40.86328125 119.7578125 C-38.25369257 122.89807225 -38.51775535 125.73630435 -38.6875 129.625 C-38.70731934 130.33849609 -38.72713867 131.05199219 -38.74755859 131.78710938 C-38.79295983 133.21032538 -38.84840017 134.63326146 -38.91455078 136.05566406 C-38.98681629 137.70001416 -39.01230318 139.34631894 -39.02734375 140.9921875 C-39.28015667 147.48442339 -41.45538451 151.40566224 -46 156 C-53.98661947 163.36405448 -64.18989677 167.31113211 -74.13989258 171.27246094 C-93.96109152 178.90054739 -93.96109152 178.90054739 -107.3125 194.73046875 C-108.28921968 197.13496268 -109.15987356 199.54568832 -110 202 C-96.7156584 202.76761447 -83.50866455 203.1071769 -70.20373154 202.95290375 C-66.26317391 202.90979828 -62.32256407 202.88718926 -58.3818531 202.86287308 C-51.09599557 202.81753749 -43.81040988 202.7630972 -36.52490234 202.67773438 C-31.40435877 202.61851564 -26.28414806 202.58343819 -21.16330338 202.56455231 C-19.22310967 202.55281111 -17.2829487 202.53199956 -15.34295273 202.50191498 C-12.65122648 202.4611089 -9.96103811 202.45103501 -7.26904297 202.44824219 C-6.47125427 202.42869476 -5.67346558 202.40914734 -4.85150146 202.38900757 C-2.63619995 202.40545654 -2.63619995 202.40545654 1 203 C4.25768568 206.49550452 4.54446007 210.35349271 5 215 C-11.67185452 215.02332882 -28.34370376 215.04097909 -45.01557064 215.05181217 C-52.75607282 215.05697517 -60.49656487 215.06401793 -68.23706055 215.07543945 C-74.98127151 215.08538619 -81.72547515 215.0918534 -88.46969324 215.09408849 C-92.04286866 215.09539562 -95.6160231 215.09848158 -99.18919182 215.10573006 C-103.17162351 215.11374372 -107.15403441 215.11399114 -111.13647461 215.11352539 C-112.32977386 215.11712067 -113.52307312 215.12071594 -114.75253296 215.12442017 C-115.83091934 215.1230455 -116.90930573 215.12167084 -118.02037048 215.12025452 C-118.96336471 215.12117631 -119.90635893 215.1220981 -120.87792873 215.12304783 C-123 215 -123 215 -124 214 C-125.29260683 200.81541038 -119.34184394 189.1724793 -111.484375 179.046875 C-101.84312029 168.23698335 -85.886675 163.15594078 -72.953125 157.61328125 C-70.96682124 156.74659455 -68.98237034 155.87564622 -67 155 C-66.07123047 154.59313965 -65.14246094 154.1862793 -64.18554688 153.76708984 C-58.78172369 151.26017187 -55.05490915 149.20765571 -52 144 C-51.30196353 140.86499718 -51.23829754 137.89015366 -51.3125 134.6875 C-51.32249023 133.83591309 -51.33248047 132.98432617 -51.34277344 132.10693359 C-51.56879375 126.28523215 -52.55920439 122.6947721 -56.3984375 118.19140625 C-59.68343985 113.69656157 -62 106.61277102 -62 101 C-62.5775 100.95875 -63.155 100.9175 -63.75 100.875 C-67.30134446 99.4939216 -68.22498858 97.31335465 -70 94 C-72.04100785 88.08435159 -72.24189206 83.10596931 -71 77 C-70.62875 76.34 -70.2575 75.68 -69.875 75 C-68.43198735 71.70168537 -69.41542052 68.4431195 -70 65 C-73.08233543 46.78409285 -74.20225048 29.54224957 -63.75 13.4375 C-50.46085699 -3.52251977 -19.38364958 -11.11762397 0 0 Z " fill="#CC4926" transform="translate(126,7)"/>
<path d="M0 0 C14.30464353 10.9800169 23.85991969 26.09104359 26.3046875 44.1484375 C27.91380996 61.07556985 22.45303614 76.34788126 12.3125 89.7890625 C2.23209694 101.82646688 -12.88188195 111.36147089 -28.6953125 113.1484375 C-46.02375159 114.443091 -63.22097209 109.6872966 -76.5871582 98.23876953 C-89.76908458 86.27488563 -97.31045024 70.94171778 -98.66015625 53.19921875 C-98.87246117 34.77586981 -91.79288274 18.87466899 -79.3359375 5.5703125 C-71.06766551 -2.01301388 -61.59235501 -7.12324187 -50.6953125 -9.8515625 C-49.94507813 -10.04234375 -49.19484375 -10.233125 -48.421875 -10.4296875 C-31.12746528 -13.10561336 -14.48703654 -9.95196423 0 0 Z M-76.6953125 19.1484375 C-85.35206282 29.82114338 -88.05746958 43.76733021 -86.93457031 57.15429688 C-85.32985919 70.52907287 -78.14520243 82.72799808 -67.6953125 91.1484375 C-54.87503238 99.96127183 -43.03466942 102.63799604 -27.6953125 101.1484375 C-14.29051161 98.64299953 -3.19919291 91.78897128 5.3046875 81.1484375 C13.74831136 67.84621333 16.39182935 53.90891945 13.65234375 38.47265625 C9.66344131 24.17766252 0.9624207 13.34075159 -11.625 5.7265625 C-34.25456036 -5.90491636 -60.31992918 -0.11231084 -76.6953125 19.1484375 Z " fill="#CC4926" transform="translate(233.6953125,144.8515625)"/>
<path d="M0 0 C3.3 0 6.6 0 10 0 C11 1 11 1 11.11352539 3.40844727 C11.10828857 4.45057373 11.10305176 5.4927002 11.09765625 6.56640625 C11.09515869 7.57904541 11.09266113 8.59168457 11.09008789 9.63500977 C11.08098389 10.93108154 11.07187988 12.22715332 11.0625 13.5625 C11.041875 17.666875 11.02125 21.77125 11 26 C19.58 26 28.16 26 37 26 C37 29.63 37 33.26 37 37 C24.625 37.495 24.625 37.495 12 38 C11.67 46.25 11.34 54.5 11 63 C7.37 63 3.74 63 0 63 C0 54.42 0 45.84 0 37 C-8.58 37 -17.16 37 -26 37 C-26 27 -26 27 -25 26 C-23.14630389 25.91262355 -21.28932459 25.89301847 -19.43359375 25.90234375 C-18.42095459 25.90484131 -17.40831543 25.90733887 -16.36499023 25.90991211 C-15.06891846 25.91901611 -13.77284668 25.92812012 -12.4375 25.9375 C-6.2809375 25.9684375 -6.2809375 25.9684375 0 26 C0 17.42 0 8.84 0 0 Z " fill="#C64A2A" transform="translate(192,164)"/>
<path d="M0 0 C0 0.99 0 1.98 0 3 C-1.32 3.33 -2.64 3.66 -4 4 C-4.66 6.64 -5.32 9.28 -6 12 C-4.68 12 -3.36 12 -2 12 C-2 12.66 -2 13.32 -2 14 C-0.68 14 0.64 14 2 14 C1.96519531 13.31292969 1.93039063 12.62585938 1.89453125 11.91796875 C1.86746094 11.01691406 1.84039062 10.11585937 1.8125 9.1875 C1.76029297 7.84751953 1.76029297 7.84751953 1.70703125 6.48046875 C2 4 2 4 3.34375 2.1875 C5.60764557 0.56432959 7.28307271 0.7797086 10 1 C10.25 3.8125 10.25 3.8125 10 7 C8.125 8.875 8.125 8.875 6 10 C5.34 10 4.68 10 4 10 C3.76216797 11.12535156 3.76216797 11.12535156 3.51953125 12.2734375 C1.77077009 19.94479862 -0.27236729 28.27236729 -6 34 C-6.47330426 37.08204601 -6.37036907 40.19819933 -6.375 43.3125 C-6.39949219 44.16779297 -6.42398438 45.02308594 -6.44921875 45.90429688 C-6.46928484 50.22185047 -6.38977378 52.40179507 -3.9765625 56.10546875 C-3.32429687 56.73066406 -2.67203125 57.35585937 -2 58 C-3.33488128 61.59391114 -4.96022723 64.75490696 -7 68 C-11.89854893 66.33382689 -14.0344212 64.41999113 -16.7734375 60.09375 C-19.14635346 54.10856069 -18.99626883 47.64391183 -18.98999023 41.26904297 C-18.99689007 39.70496872 -19.04305817 38.14074265 -19.12133789 36.57861328 C-19.35609307 30.59511444 -19.35609307 30.59511444 -17.57421875 27.6171875 C-16.95160156 27.04226562 -16.32898438 26.46734375 -15.6875 25.875 C-9.56001053 19.57490519 -8.51569947 13.29179321 -7.13671875 4.79296875 C-6 2 -6 2 -2.89453125 0.61328125 C-1.93933594 0.41089844 -0.98414063 0.20851563 0 0 Z " fill="#C54A2A" transform="translate(143,98)"/>
<path d="M0 0 C0.33 0 0.66 0 1 0 C1 2.97 1 5.94 1 9 C0.34 9 -0.32 9 -1 9 C-1.33 12.96 -1.66 16.92 -2 21 C11.86 21.495 11.86 21.495 26 22 C26.66 20.02 27.32 18.04 28 16 C26.68 16 25.36 16 24 16 C24.33 15.01 24.66 14.02 25 13 C18.07 12.505 18.07 12.505 11 12 C11 11.67 11 11.34 11 11 C30.47 11 49.94 11 70 11 C70 11.33 70 11.66 70 12 C68.72382812 12.06058594 67.44765625 12.12117187 66.1328125 12.18359375 C64.46352984 12.26799568 62.79425963 12.35264386 61.125 12.4375 C60.28324219 12.47681641 59.44148438 12.51613281 58.57421875 12.55664062 C57.36572266 12.61948242 57.36572266 12.61948242 56.1328125 12.68359375 C55.38918457 12.72025146 54.64555664 12.75690918 53.87939453 12.79467773 C51.91135688 12.89955865 51.91135688 12.89955865 50 14 C50.495 17.465 50.495 17.465 51 21 C74.76 21.33 98.52 21.66 123 22 C122.01 19.03 122.01 19.03 121 16 C121.375 13.625 121.375 13.625 122 12 C125 18.5 125 18.5 125 23 C108.32814548 23.02332882 91.65629624 23.04097909 74.98442936 23.05181217 C67.24392718 23.05697517 59.50343513 23.06401793 51.76293945 23.07543945 C45.01872849 23.08538619 38.27452485 23.0918534 31.53030676 23.09408849 C27.95713134 23.09539562 24.3839769 23.09848158 20.81080818 23.10573006 C16.82837649 23.11374372 12.84596559 23.11399114 8.86352539 23.11352539 C7.67022614 23.11712067 6.47692688 23.12071594 5.24746704 23.12442017 C4.16908066 23.1230455 3.09069427 23.12167084 1.97962952 23.12025452 C1.03663529 23.12117631 0.09364107 23.1220981 -0.87792873 23.12304783 C-3 23 -3 23 -4 22 C-4.76219222 14.22563932 -2.30882157 7.33875428 0 0 Z " fill="#C34525" transform="translate(6,199)"/>
<path d="M0 0 C0.66 0.33 1.32 0.66 2 1 C2 1.66 2 2.32 2 3 C3.65 2.01 5.3 1.02 7 0 C8 3 8 3 6.625 5.8125 C6.08875 6.864375 5.5525 7.91625 5 9 C4.62531061 10.9926663 4.28556826 12.99262313 4 15 C5.71509766 15.07347656 5.71509766 15.07347656 7.46484375 15.1484375 C8.95575473 15.22345189 10.44663892 15.29900028 11.9375 15.375 C13.06961914 15.42140625 13.06961914 15.42140625 14.22460938 15.46875 C16.15507395 15.5726315 18.07942081 15.77895614 20 16 C20.33 16.66 20.66 17.32 21 18 C20.34 18 19.68 18 19 18 C19 18.66 19 19.32 19 20 C20.32 20 21.64 20 23 20 C22.49396008 22.16874252 22.00016187 23.99967627 21 26 C16.70834738 26.02891949 12.41671964 26.04677118 8.125 26.0625 C6.90167969 26.07087891 5.67835937 26.07925781 4.41796875 26.08789062 C2.66806641 26.09272461 2.66806641 26.09272461 0.8828125 26.09765625 C-0.73536377 26.10551147 -0.73536377 26.10551147 -2.38623047 26.11352539 C-5 26 -5 26 -7 25 C-7.02698189 23.37509046 -7.04638757 21.75005367 -7.0625 20.125 C-7.07410156 19.22007812 -7.08570313 18.31515625 -7.09765625 17.3828125 C-7 15 -7 15 -6 13 C-5.34 13 -4.68 13 -4 13 C-4.04640625 12.39671875 -4.0928125 11.7934375 -4.140625 11.171875 C-4.43910806 4.5626072 -4.43910806 4.5626072 -2 1.4375 C-1.34 0.963125 -0.68 0.48875 0 0 Z " fill="#CF4925" transform="translate(11,195)"/>
<path d="M0 0 C2.31 0.66 4.62 1.32 7 2 C7.23074219 3.05058594 7.46148437 4.10117188 7.69921875 5.18359375 C10.39044026 18.28742766 10.39044026 18.28742766 18.13671875 28.7578125 C20.74630743 31.89807225 20.48224465 34.73630435 20.3125 38.625 C20.29268066 39.33849609 20.27286133 40.05199219 20.25244141 40.78710938 C20.20704017 42.21032538 20.15159983 43.63326146 20.08544922 45.05566406 C20.01318371 46.70001416 19.98769682 48.34631894 19.97265625 49.9921875 C19.66060828 58.00557932 15.53771627 62.57834365 10 68 C9.34 67.67 8.68 67.34 8 67 C8.48210937 66.45730469 8.96421875 65.91460937 9.4609375 65.35546875 C10.09257813 64.64003906 10.72421875 63.92460937 11.375 63.1875 C12.31472656 62.12595703 12.31472656 62.12595703 13.2734375 61.04296875 C16.57469021 57.13673534 17.24456178 55.0675827 17.1953125 50.01953125 C17.18886719 48.85615234 17.18242188 47.69277344 17.17578125 46.49414062 C17.15902344 45.27919922 17.14226562 44.06425781 17.125 42.8125 C17.11597656 41.58595703 17.10695313 40.35941406 17.09765625 39.09570312 C17.07406017 36.06360705 17.04113841 33.03190062 17 30 C16.34 29.67 15.68 29.34 15 29 C14.67 29.66 14.34 30.32 14 31 C13.01 31 12.02 31 11 31 C10.34 40.24 9.68 49.48 9 59 C8.67 58.34 8.34 57.68 8 57 C6.35 57.66 4.7 58.32 3 59 C3.97066406 57.80310547 3.97066406 57.80310547 4.9609375 56.58203125 C7.69558023 52.45830607 7.68718512 48.52085027 7.625 43.6875 C7.62024658 42.83881348 7.61549316 41.99012695 7.6105957 41.11572266 C7.41703107 35.2247731 6.4034218 31.50575077 2.5390625 26.91796875 C0.0029685 23.75750643 -1.32280756 19.97945672 -2 16 C-1.67 14.68 -1.34 13.36 -1 12 C-0.01 14.97 0.98 17.94 2 21 C2.66 20.01 3.32 19.02 4 18 C4.66 19.32 5.32 20.64 6 22 C6.66 20.02 7.32 18.04 8 16 C7.01 16 6.02 16 5 16 C5 14.68 5 13.36 5 12 C5.66 12 6.32 12 7 12 C6.67 10.02 6.34 8.04 6 6 C5.01 6.33 4.02 6.66 3 7 C3 6.34 3 5.68 3 5 C3.99 5 4.98 5 6 5 C6 4.34 6 3.68 6 3 C4.02 3 2.04 3 0 3 C0 2.01 0 1.02 0 0 Z " fill="#B94527" transform="translate(67,98)"/>
<path d="M0 0 C0.66 0.33 1.32 0.66 2 1 C0.625 2.5 0.625 2.5 -1 4 C-1.66 4 -2.32 4 -3 4 C-3 4.66 -3 5.32 -3 6 C-3.66 6 -4.32 6 -5 6 C-3.35 7.98 -1.7 9.96 0 12 C0.66 11.34 1.32 10.68 2 10 C2.99 10.33 3.98 10.66 5 11 C4.20335937 11.76183594 4.20335937 11.76183594 3.390625 12.5390625 C-0.63464522 16.46149735 -4.10599753 20.17666255 -7 25 C-7.33 24.34 -7.66 23.68 -8 23 C-8.99 23.66 -9.98 24.32 -11 25 C-12.32 25 -13.64 25 -15 25 C-15.33 25.99 -15.66 26.98 -16 28 C-16.99 27.67 -17.98 27.34 -19 27 C-18.67 27.99 -18.34 28.98 -18 30 C-18.7421875 31.9375 -18.7421875 31.9375 -19.875 34 C-21.96784905 37.86372133 -23.10920903 41.03887802 -23.31640625 45.44921875 C-23.35830078 46.29677734 -23.40019531 47.14433594 -23.44335938 48.01757812 C-23.50233398 49.33918945 -23.50233398 49.33918945 -23.5625 50.6875 C-23.60568359 51.58017578 -23.64886719 52.47285156 -23.69335938 53.39257812 C-23.79935353 55.59490108 -23.90142051 57.79733473 -24 60 C-23.34 60.33 -22.68 60.66 -22 61 C-21.5859375 63.50390625 -21.5859375 63.50390625 -21.375 66.5625 C-21.30023438 67.57441406 -21.22546875 68.58632812 -21.1484375 69.62890625 C-21.09945312 70.41136719 -21.05046875 71.19382812 -21 72 C-27.16217079 62.75674382 -26.45797259 49.96547953 -24.71875 39.484375 C-21.49778022 23.86967368 -13.25434077 9.3348856 0 0 Z " fill="#C24525" transform="translate(161,145)"/>
<path d="M0 0 C0.66 0.33 1.32 0.66 2 1 C1.67 1.99 1.34 2.98 1 4 C1.99 3.34 2.98 2.68 4 2 C4.99 2.66 5.98 3.32 7 4 C6.01 4 5.02 4 4 4 C4.66 4.66 5.32 5.32 6 6 C6.66 6 7.32 6 8 6 C8 5.34 8 4.68 8 4 C8.99 4.33 9.98 4.66 11 5 C10.60167969 5.4846875 10.20335938 5.969375 9.79296875 6.46875 C0.09117248 18.74352874 0.14265564 31.94090505 1 47 C1.50405377 51.04807886 2.36345667 54.94876951 3.34375 58.90625 C4.01899005 62.08952454 4.33516191 64.76010158 4 68 C2.515 68.99 2.515 68.99 1 70 C0.63539547 72.66653905 0.63539547 72.66653905 0.8125 75.625 C0.83957031 76.62789063 0.86664063 77.63078125 0.89453125 78.6640625 C0.92933594 79.43492188 0.96414062 80.20578125 1 81 C0.34 81 -0.32 81 -1 81 C-1 77.7 -1 74.4 -1 71 C-1.66 70.67 -2.32 70.34 -3 70 C0.75 67 0.75 67 3 67 C2.71125 66.08605469 2.4225 65.17210938 2.125 64.23046875 C-1.79607636 50.58533271 -1.40502989 37.09348226 -1 23 C-1.66 22.67 -2.32 22.34 -3 22 C-2.690625 21.4225 -2.38125 20.845 -2.0625 20.25 C-0.65375221 17.26676938 0.15963237 15.1174266 -0.3125 11.8125 C-0.84319615 9.79603484 -0.84319615 9.79603484 -3 9 C-3 9.66 -3 10.32 -3 11 C-3.66 11 -4.32 11 -5 11 C-5.10957031 11.54527344 -5.21914063 12.09054688 -5.33203125 12.65234375 C-6.51009937 18.25535065 -8.087035 23.6054387 -10 29 C-10.66 29 -11.32 29 -12 29 C-10.36746318 17.70112676 -7.38828474 8.81668646 0 0 Z " fill="#B84529" transform="translate(66,16)"/>
<path d="M0 0 C0.33 0 0.66 0 1 0 C1.49152542 5.40677966 1.49152542 5.40677966 -0.8125 8.1875 C-1.8953125 9.0846875 -1.8953125 9.0846875 -3 10 C-3.5775 10.5775 -4.155 11.155 -4.75 11.75 C-5.1625 12.1625 -5.575 12.575 -6 13 C-4.68 14.32 -3.36 15.64 -2 17 C1.47137055 15.26431473 3.83908113 12.17742587 6 9 C6.25124826 6.33238236 6.25124826 6.33238236 6 4 C7.3125 2.1875 7.3125 2.1875 9 1 C9.99 1 10.98 1 12 1 C8.7501016 12.09840302 0.69143024 19.78682531 -8 27 C-8.66 26.67 -9.32 26.34 -10 26 C-9.34 24.35 -8.68 22.7 -8 21 C-6.68 21 -5.36 21 -4 21 C-4.33 20.01 -4.66 19.02 -5 18 C-5.99 17.67 -6.98 17.34 -8 17 C-8.309375 17.928125 -8.61875 18.85625 -8.9375 19.8125 C-9.625 21.875 -10.3125 23.9375 -11 26 C-14.3 26 -17.6 26 -21 26 C-20.34 25.34 -19.68 24.68 -19 24 C-21.98481967 23.80020729 -21.98481967 23.80020729 -24.4375 25.0625 C-27.28390823 26.10386886 -28.19738668 25.85089958 -31 25 C-30.23816406 24.72027344 -29.47632813 24.44054687 -28.69140625 24.15234375 C-16.94300215 19.59085352 -5.36191597 11.9363255 0 0 Z " fill="#BB4628" transform="translate(242,219)"/>
<path d="M0 0 C-0.33 2.31 -0.66 4.62 -1 7 C-1.66 7 -2.32 7 -3 7 C-3 7.99 -3 8.98 -3 10 C-4.98 10 -6.96 10 -9 10 C-9.103125 10.61875 -9.20625 11.2375 -9.3125 11.875 C-10 14 -10 14 -13 16 C-15.6875 15.625 -15.6875 15.625 -18 15 C-18 15.66 -18 16.32 -18 17 C-18.99 17.33 -19.98 17.66 -21 18 C-21.66 16.68 -22.32 15.36 -23 14 C-24.98 14.99 -24.98 14.99 -27 16 C-23.53283777 8.63228026 -16.39920452 4.69061982 -9 2 C-2.57894737 0 -2.57894737 0 0 0 Z " fill="#CE4824" transform="translate(92,5)"/>
<path d="M0 0 C0.33 0 0.66 0 1 0 C1 2.97 1 5.94 1 9 C0.34 9 -0.32 9 -1 9 C-1.33 12.96 -1.66 16.92 -2 21 C39.25 21.33 80.5 21.66 123 22 C122.01 19.03 122.01 19.03 121 16 C121.375 13.625 121.375 13.625 122 12 C125 18.5 125 18.5 125 23 C108.32814548 23.02332882 91.65629624 23.04097909 74.98442936 23.05181217 C67.24392718 23.05697517 59.50343513 23.06401793 51.76293945 23.07543945 C45.01872849 23.08538619 38.27452485 23.0918534 31.53030676 23.09408849 C27.95713134 23.09539562 24.3839769 23.09848158 20.81080818 23.10573006 C16.82837649 23.11374372 12.84596559 23.11399114 8.86352539 23.11352539 C7.67022614 23.11712067 6.47692688 23.12071594 5.24746704 23.12442017 C4.16908066 23.1230455 3.09069427 23.12167084 1.97962952 23.12025452 C1.03663529 23.12117631 0.09364107 23.1220981 -0.87792873 23.12304783 C-3 23 -3 23 -4 22 C-4.76219222 14.22563932 -2.30882157 7.33875428 0 0 Z " fill="#A9462E" transform="translate(6,199)"/>
<path d="M0 0 C5.75 0.75 5.75 0.75 8 3 C10.60280568 2.67958603 10.60280568 2.67958603 13 2 C13 2.66 13 3.32 13 4 C13.99 4 14.98 4 16 4 C16.66 4.66 17.32 5.32 18 6 C18.825 5.835 19.65 5.67 20.5 5.5 C21.325 5.335 22.15 5.17 23 5 C23.66 5.66 24.32 6.32 25 7 C25.33 6.01 25.66 5.02 26 4 C25.01 3.67 24.02 3.34 23 3 C23 2.34 23 1.68 23 1 C22.34 0.67 21.68 0.34 21 0 C21.90878906 0.16371094 22.81757813 0.32742187 23.75390625 0.49609375 C29.12880056 1.26393579 34.52021545 1.1062149 39.9375 1.0625 C41.00291016 1.05798828 42.06832031 1.05347656 43.16601562 1.04882812 C45.77740291 1.03711787 48.38867124 1.02071724 51 1 C47.93612652 3.04258232 47.32149642 3.24021141 43.875 3.23828125 C42.69164062 3.26245117 42.69164062 3.26245117 41.484375 3.28710938 C39.8282033 3.30403566 38.17187039 3.30924477 36.515625 3.30273438 C34.24190098 3.36032052 32.20662668 3.4431823 30 4 C28.00359694 6.40879373 28.00359694 6.40879373 27 9 C26.34 9 25.68 9 25 9 C25 9.66 25 10.32 25 11 C29.30140324 11.82117698 33.372736 12.13508586 37.75 12.125 C39.44382812 12.12886719 39.44382812 12.12886719 41.171875 12.1328125 C43.95021112 12.19354612 43.95021112 12.19354612 46 11 C48.3329866 10.95977609 50.66706666 10.95679753 53 11 C43.91523012 15.86684101 32.6497125 15.00547483 22.9375 12.4375 C4.33142202 6.49713303 4.33142202 6.49713303 0 0 Z " fill="#B44527" transform="translate(160,244)"/>
<path d="M0 0 C0.8971875 0.5259375 0.8971875 0.5259375 1.8125 1.0625 C4.10813214 2.33304698 4.10813214 2.33304698 7 1 C9.1875 1.4375 9.1875 1.4375 11 2 C9.96101563 2.47308594 8.92203125 2.94617188 7.8515625 3.43359375 C-3.80307369 8.89443145 -13.93703114 14.55353488 -19 27 C-19.65633292 28.33845034 -20.32047697 29.6731727 -21 31 C-20.45144652 26.428721 -19.58255197 22.32564205 -18 18 C-18.66 18.66 -19.32 19.32 -20 20 C-20.99 20 -21.98 20 -23 20 C-23.33 19.34 -23.66 18.68 -24 18 C-24.66 18.66 -25.32 19.32 -26 20 C-26.99 20.33 -27.98 20.66 -29 21 C-26.74711643 13.79077257 -21.40135379 8.0836271 -16 3 C-15.34 3.33 -14.68 3.66 -14 4 C-16.64 6.64 -19.28 9.28 -22 12 C-20.68 12.33 -19.36 12.66 -18 13 C-18 13.66 -18 14.32 -18 15 C-14.31137465 14.50153711 -12.31453856 13.9758353 -10 11 C-8.82425289 8.90010348 -8.82425289 8.90010348 -8 7 C-7.34 7.33 -6.68 7.66 -6 8 C-5.67 7.34 -5.34 6.68 -5 6 C-3.68 6 -2.36 6 -1 6 C-1 5.34 -1 4.68 -1 4 C-0.34 4 0.32 4 1 4 C1 3.34 1 2.68 1 2 C0.34 1.67 -0.32 1.34 -1 1 C-0.67 0.67 -0.34 0.34 0 0 Z " fill="#B14427" transform="translate(36,178)"/>
<path d="M0 0 C0.33 1.32 0.66 2.64 1 4 C4.3 4.66 7.6 5.32 11 6 C11.33 8.31 11.66 10.62 12 13 C10.4375 13.6875 10.4375 13.6875 8 14 C5.6429774 13.05719096 3.30965848 12.05352843 1 11 C-1.77888613 10.30859478 -1.77888613 10.30859478 -4 10 C-4.33 8.35 -4.66 6.7 -5 5 C-6.65 4.67 -8.3 4.34 -10 4 C-10.33 3.01 -10.66 2.02 -11 1 C-6.92630576 -1.03684712 -4.41062136 -1.0257259 0 0 Z " fill="#D14923" transform="translate(129,11)"/>
<path d="M0 0 C0.33 0.99 0.66 1.98 1 3 C2.65 3 4.3 3 6 3 C6.33 4.32 6.66 5.64 7 7 C7.99 6.690625 7.99 6.690625 9 6.375 C13.09630108 5.86296237 16.04235979 6.85966299 20 8 C20 8.66 20 9.32 20 10 C21.32 10.33 22.64 10.66 24 11 C23.34 12.32 22.68 13.64 22 15 C21.01 14.34 20.02 13.68 19 13 C16.35367713 13.3121764 16.35367713 13.3121764 14 14 C13.67 13.01 13.34 12.02 13 11 C10.50855815 9.93223921 9.2006085 9.94856192 6.5625 10.625 C3.04895259 11.13917767 1.83499005 10.05536778 -1 8 C-2.68477344 6.68962066 -4.35648543 5.36176922 -6 4 C-5.67 3.01 -5.34 2.02 -5 1 C-3.35 0.67 -1.7 0.34 0 0 Z " fill="#D24925" transform="translate(163,237)"/>
<path d="M0 0 C1.02413764 3.07241293 1.04134935 4.98623094 0.9375 8.1875 C0.87786045 13.17071606 1.56364682 17.2420801 3 22 C4.258125 22.103125 5.51625 22.20625 6.8125 22.3125 C10.30801596 22.7302418 11.66437123 23.31402691 14 26 C15.32 26 16.64 26 18 26 C18 26.66 18 27.32 18 28 C17.34 28 16.68 28 16 28 C16 29.32 16 30.64 16 32 C16.99 32 17.98 32 19 32 C19.1875 34.375 19.1875 34.375 19 37 C18.01 37.66 17.02 38.32 16 39 C15.67 37.68 15.34 36.36 15 35 C14.34 36.32 13.68 37.64 13 39 C12.49384702 37.73160474 11.99530901 36.46016898 11.5 35.1875 C11.2215625 34.47980469 10.943125 33.77210937 10.65625 33.04296875 C10 31 10 31 10 28 C9.34 28 8.68 28 8 28 C8 27.34 8 26.68 8 26 C7.4225 25.95875 6.845 25.9175 6.25 25.875 C2.69865554 24.4939216 1.77501142 22.31335465 0 19 C-2.04419875 13.0751031 -2.18124479 8.12099571 -1 2 C-0.67 1.34 -0.34 0.68 0 0 Z " fill="#D24828" transform="translate(56,82)"/>
<path d="M0 0 C3.72818126 0.23301133 5.75542605 1.46449094 8.5625 3.75 C11.93366433 6.44180422 15.15594661 7.97454737 19.1875 9.5 C24.38637917 11.51776979 26.96945559 13.34594966 30 18 C29.34 18.33 28.68 18.66 28 19 C27.67 18.34 27.34 17.68 27 17 C25.68 17.33 24.36 17.66 23 18 C22.67 19.98 22.34 21.96 22 24 C22.66 24 23.32 24 24 24 C26.1875 25.5 26.1875 25.5 28 28 C28.04848891 30.82313191 27.55936042 33.20319791 27 36 C25.85058741 33.70117482 24.73655549 31.41038609 23.6875 29.0625 C20.85495768 23.92196024 17.63448821 20.77083915 12 19 C15.32534757 17.89155081 17.62182575 18.15545644 21 19 C21 16.69 21 14.38 21 12 C18.69 12 16.38 12 14 12 C14 11.34 14 10.68 14 10 C13.01 10 12.02 10 11 10 C10.67 8.68 10.34 7.36 10 6 C7.69 5.67 5.38 5.34 3 5 C3.33 4.01 3.66 3.02 4 2 C2.68 2 1.36 2 0 2 C0 1.34 0 0.68 0 0 Z " fill="#B64528" transform="translate(119,5)"/>
<path d="M0 0 C5.22589547 5.22589547 5.58387518 12.99762367 6 20 C4 18 4 18 3 15 C-1.39326135 17.68606886 -1.39326135 17.68606886 -3.50830078 22.12646484 C-3.63632403 24.65842268 -3.62644358 27.15317947 -3.5625 29.6875 C-3.62406092 37.51352017 -4.32107958 43.43915217 -9 50 C-9.33 49.34 -9.66 48.68 -10 48 C-9.40149293 46.315759 -8.74409939 44.65236217 -8.0625 43 C-4.44055619 32.56175917 -4.34136305 20.1797651 -8.44140625 9.84765625 C-9 8 -9 8 -8 5 C-5.91620491 8.84700632 -4.50313376 12.90054429 -3 17 C-1.45486138 15.45486138 -1.39348659 13.67354905 -0.9375 11.5625 C-0.76089844 10.75941406 -0.58429688 9.95632812 -0.40234375 9.12890625 C0.06190116 7.03356344 0.06190116 7.03356344 0 5 C0 3.33333333 0 1.66666667 0 0 Z " fill="#BB4726" transform="translate(253,169)"/>
<path d="M0 0 C1.98 0 3.96 0 6 0 C6 0.33 6 0.66 6 1 C4.35 1 2.7 1 1 1 C1 7.27 1 13.54 1 20 C1.66 20.33 2.32 20.66 3 21 C3.625 23.0625 3.625 23.0625 4 25 C5.65 25 7.3 25 9 25 C8.86068862 21.9163358 8.71240719 18.83316583 8.5625 15.75 C8.52318359 14.87730469 8.48386719 14.00460938 8.44335938 13.10546875 C8.40146484 12.26113281 8.35957031 11.41679687 8.31640625 10.546875 C8.27974854 9.77182617 8.24309082 8.99677734 8.20532227 8.19824219 C8.00396985 6.0425024 7.58270703 4.08198525 7 2 C7.99 2 8.98 2 10 2 C10 10.25 10 18.5 10 27 C11.65 27 13.3 27 15 27 C15 27.33 15 27.66 15 28 C13.35 28 11.7 28 10 28 C9.67 29.65 9.34 31.3 9 33 C6.95880212 31.38405168 4.95927063 29.7143618 3 28 C3 27.34 3 26.68 3 26 C2.01 26 1.02 26 0 26 C0 17.42 0 8.84 0 0 Z " fill="#B94C30" transform="translate(192,164)"/>
<path d="M0 0 C0 0.99 0 1.98 0 3 C-0.639375 3.12375 -1.27875 3.2475 -1.9375 3.375 C-2.618125 3.58125 -3.29875 3.7875 -4 4 C-5.9025281 7.80505621 -5.29221373 12.60386773 -4.4375 16.6875 C-3.92565148 19.39298503 -4.31959307 21.35397305 -5 24 C-4.01 24.33 -3.02 24.66 -2 25 C-2.33 26.65 -2.66 28.3 -3 30 C-5 27 -5 27 -5 25 C-6.32 25.33 -7.64 25.66 -9 26 C-9 25.34 -9 24.68 -9 24 C-10.98 25.65 -12.96 27.3 -15 29 C-15.66 28.67 -16.32 28.34 -17 28 C-16.236875 27.154375 -15.47375 26.30875 -14.6875 25.4375 C-9.54579532 19.18055233 -8.4099407 12.63998915 -7.13671875 4.79296875 C-6 2 -6 2 -2.89453125 0.61328125 C-1.93933594 0.41089844 -0.98414063 0.20851563 0 0 Z " fill="#B8462C" transform="translate(143,98)"/>
<path d="M0 0 C0.598125 0.804375 1.19625 1.60875 1.8125 2.4375 C3.80947276 5.22327984 3.80947276 5.22327984 7 6 C7.33 5.34 7.66 4.68 8 4 C8.495 7.465 8.495 7.465 9 11 C10.65 11 12.3 11 14 11 C14.495 11.99 14.495 11.99 15 13 C8.99598903 12.64682288 7.10285575 11.20542714 3 7 C-2.04745548 5.1713933 -6.79847803 4.64829386 -12.125 4.6875 C-13.22509399 4.68943359 -13.22509399 4.68943359 -14.34741211 4.69140625 C-21.18035992 4.81002095 -27.43287171 6.08125643 -34 8 C-33.67 7.01 -33.34 6.02 -33 5 C-31.02 5 -29.04 5 -27 5 C-27 4.01 -27 3.02 -27 2 C-19.08 2.33 -11.16 2.66 -3 3 C-3 2.34 -3 1.68 -3 1 C-2.01 0.67 -1.02 0.34 0 0 Z " fill="#B34327" transform="translate(116,10)"/>
<path d="M0 0 C3.125 0.375 3.125 0.375 6 1 C6.33 2.65 6.66 4.3 7 6 C3.37673261 7.2077558 2.35853631 6.54311128 -1 5 C-0.65213292 6.97536745 -0.65213292 6.97536745 0 9 C0.66 9.33 1.32 9.66 2 10 C2 11.65 2 13.3 2 15 C-0.475 14.01 -0.475 14.01 -3 13 C-3 12.34 -3 11.68 -3 11 C-3.99 10.67 -4.98 10.34 -6 10 C-6.33 9.01 -6.66 8.02 -7 7 C-4.66666667 4.66666667 -2.33333333 2.33333333 0 0 Z " fill="#D35F3E" transform="translate(132,122)"/>
<path d="M0 0 C0.2475 0.639375 0.495 1.27875 0.75 1.9375 C1.81562433 4.18741541 1.81562433 4.18741541 4.125 4.75 C4.74375 4.8325 5.3625 4.915 6 5 C6 5.66 6 6.32 6 7 C6.598125 7.0825 7.19625 7.165 7.8125 7.25 C10.5966296 8.20455872 11.43311142 9.57132271 13 12 C11.02 12.66 9.04 13.32 7 14 C6.34 13.01 5.68 12.02 5 11 C4.38125 11.185625 3.7625 11.37125 3.125 11.5625 C1 12 1 12 -1 11 C-2.3125 8.8125 -2.3125 8.8125 -3 6 C-1.625 2.6875 -1.625 2.6875 0 0 Z " fill="#D24B26" transform="translate(150,223)"/>
<path d="M0 0 C0.33 0 0.66 0 1 0 C1 1.65 1 3.3 1 5 C0.01 5.495 0.01 5.495 -1 6 C-0.87625 6.99 -0.87625 6.99 -0.75 8 C-1.05212942 11.62555299 -2.31095825 13.97072596 -4.02734375 17.1328125 C-5.66158004 20.27002113 -6.15295472 22.97003608 -6.31640625 26.44921875 C-6.35830078 27.29677734 -6.40019531 28.14433594 -6.44335938 29.01757812 C-6.48267578 29.89865234 -6.52199219 30.77972656 -6.5625 31.6875 C-6.60568359 32.58017578 -6.64886719 33.47285156 -6.69335938 34.39257812 C-6.79935353 36.59490108 -6.90142051 38.79733473 -7 41 C-6.34 41.33 -5.68 41.66 -5 42 C-4.5859375 44.50390625 -4.5859375 44.50390625 -4.375 47.5625 C-4.30023438 48.57441406 -4.22546875 49.58632812 -4.1484375 50.62890625 C-4.09945312 51.41136719 -4.05046875 52.19382813 -4 53 C-10.16353349 43.75469976 -9.43976684 30.99366775 -7.734375 20.5078125 C-6.20734191 13.21379272 -4.14685389 6.24852915 0 0 Z " fill="#A2412B" transform="translate(144,164)"/>
<path d="M0 0 C1.32 0 2.64 0 4 0 C4 0.99 4 1.98 4 3 C5.97746603 3.73080266 7.98072489 4.39421747 10 5 C10.66 4.67 11.32 4.34 12 4 C12.33 4.99 12.66 5.98 13 7 C11.5625 9.1875 11.5625 9.1875 10 11 C6.75728494 10.4409112 5.06942576 9.5867822 3 7 C3 6.34 3 5.68 3 5 C1.35 4.67 -0.3 4.34 -2 4 C-1.34 2.68 -0.68 1.36 0 0 Z " fill="#D34922" transform="translate(222,144)"/>
<path d="M0 0 C1.2065625 0.0309375 1.2065625 0.0309375 2.4375 0.0625 C-0.60846998 3.50577041 -3.43315909 5.11912598 -7.6875 6.8125 C-9.26917969 7.45445312 -9.26917969 7.45445312 -10.8828125 8.109375 C-13.5625 9.0625 -13.5625 9.0625 -15.5625 9.0625 C-16.2225 7.7425 -16.8825 6.4225 -17.5625 5.0625 C-16.9025 4.4025 -16.2425 3.7425 -15.5625 3.0625 C-15.2325 2.4025 -14.9025 1.7425 -14.5625 1.0625 C-12.625 1.4375 -12.625 1.4375 -10.5625 2.0625 C-10.2325 2.7225 -9.9025 3.3825 -9.5625 4.0625 C-9.2325 3.4025 -8.9025 2.7425 -8.5625 2.0625 C-6.90428227 1.68940101 -5.23672986 1.35549023 -3.5625 1.0625 C-2.5625 0.0625 -2.5625 0.0625 0 0 Z " fill="#C64724" transform="translate(229.5625,245.9375)"/>
<path d="M0 0 C3.39618012 2.62432101 4.24720743 5.94167596 5 10 C5.35695825 14.10684106 5.41554229 18.19177058 5.4375 22.3125 C5.48680664 23.92801758 5.48680664 23.92801758 5.53710938 25.57617188 C5.58805698 33.22294457 4.02514463 38.49980606 0 45 C-0.33 44.34 -0.66 43.68 -1 43 C-0.40149293 41.315759 0.25590061 39.65236217 0.9375 38 C4.56039892 27.55900658 4.60901948 15.22367613 0.65625 4.84765625 C0 3 0 3 0 0 Z " fill="#A7422D" transform="translate(244,174)"/>
<path d="M0 0 C0.66 0.33 1.32 0.66 2 1 C1.38125 1.45375 0.7625 1.9075 0.125 2.375 C-2.69043072 4.52797643 -3.86036194 5.58108581 -5 9 C-5.825 9.309375 -6.65 9.61875 -7.5 9.9375 C-8.325 10.288125 -9.15 10.63875 -10 11 C-10.88693303 13.04105639 -10.88693303 13.04105639 -11 15 C-10.01 15.33 -9.02 15.66 -8 16 C-8.66 17.32 -9.32 18.64 -10 20 C-10 19.34 -10 18.68 -10 18 C-10.66 18 -11.32 18 -12 18 C-12.33 17.34 -12.66 16.68 -13 16 C-14.32 16.33 -15.64 16.66 -17 17 C-13.63406681 9.48217969 -7.5078802 3.30346729 0 0 Z " fill="#CB512F" transform="translate(30,175)"/>
<path d="M0 0 C1.875 0.125 1.875 0.125 4 1 C5.59844485 4.59650092 6 7.03397243 6 11 C4.68 11 3.36 11 2 11 C2 10.34 2 9.68 2 9 C0.68 9 -0.64 9 -2 9 C-2.25 3.375 -2.25 3.375 0 0 Z " fill="#D04923" transform="translate(139,101)"/>
<path d="M0 0 C0.33 0.99 0.66 1.98 1 3 C-0.65 3.33 -2.3 3.66 -4 4 C-4.144375 4.804375 -4.28875 5.60875 -4.4375 6.4375 C-5 9 -5 9 -6 10 C-5.34 10 -4.68 10 -4 10 C-4.33 10.99 -4.66 11.98 -5 13 C-7.04119788 11.38405168 -9.04072937 9.7143618 -11 8 C-11 7.34 -11 6.68 -11 6 C-10.34 6 -9.68 6 -9 6 C-9 5.34 -9 4.68 -9 4 C-5.69649386 0.88002198 -4.67590167 0 0 0 Z " fill="#D44D2D" transform="translate(167,145)"/>
<path d="M0 0 C1.03479513 3.1043854 0.98245011 4.90054118 0.8125 8.125 C0.76089021 13.67673857 1.73536286 18.41540155 5 23 C7.04706031 24.25921014 7.04706031 24.25921014 9 25 C8.67 25.99 8.34 26.98 8 28 C8 27.34 8 26.68 8 26 C7.4225 25.95875 6.845 25.9175 6.25 25.875 C2.69865554 24.4939216 1.77501142 22.31335465 0 19 C-2.04419875 13.0751031 -2.18124479 8.12099571 -1 2 C-0.67 1.34 -0.34 0.68 0 0 Z " fill="#A63F2C" transform="translate(56,82)"/>
<path d="M0 0 C2.97 0 5.94 0 9 0 C9 0.33 9 0.66 9 1 C8.154375 1.23074219 7.30875 1.46148437 6.4375 1.69921875 C-1.46796663 3.97015673 -1.46796663 3.97015673 -8.6875 7.8125 C-9.780625 8.534375 -10.87375 9.25625 -12 10 C-12.66 9.67 -13.32 9.34 -14 9 C-13.34 8.01 -12.68 7.02 -12 6 C-11.34 6 -10.68 6 -10 6 C-9.4225 5.34 -8.845 4.68 -8.25 4 C-6 2 -6 2 -2.75 1.75 C-1.38875 1.87375 -1.38875 1.87375 0 2 C0 1.34 0 0.68 0 0 Z " fill="#B4422A" transform="translate(180,145)"/>
<path d="M0 0 C3 1 3 1 4 3 C4.08510205 4.9593604 4.10717656 6.92162794 4.09765625 8.8828125 C4.09443359 10.04941406 4.09121094 11.21601563 4.08789062 12.41796875 C4.07951172 13.64128906 4.07113281 14.86460937 4.0625 16.125 C4.05798828 17.35605469 4.05347656 18.58710938 4.04882812 19.85546875 C4.0370133 22.90369392 4.02054028 25.95182314 4 29 C3.67 28.34 3.34 27.68 3 27 C1.35 27.66 -0.3 28.32 -2 29 C-1.34773438 28.20851562 -0.69546875 27.41703125 -0.0234375 26.6015625 C2.78273966 22.38362808 2.51879454 18.29428679 2.375 13.375 C2.37371094 12.529375 2.37242188 11.68375 2.37109375 10.8125 C2.31121662 6.59448854 2.11300566 3.73174715 0 0 Z " fill="#9E4129" transform="translate(72,128)"/>
<path d="M0 0 C1.39244995 2.78489989 0.60011193 4.09960989 -0.25 7.0625 C-0.52972656 8.03960937 -0.80945312 9.01671875 -1.09765625 10.0234375 C-2.31668368 14.04464486 -3.61848782 18.03182671 -5 22 C-5.66 22 -6.32 22 -7 22 C-4.46666667 4.46666667 -4.46666667 4.46666667 0 0 Z " fill="#AF452D" transform="translate(61,23)"/>
<path d="M0 0 C0.33 0 0.66 0 1 0 C1 2.97 1 5.94 1 9 C0.34 9 -0.32 9 -1 9 C-1.33 12.96 -1.66 16.92 -2 21 C-1.34 21.33 -0.68 21.66 0 22 C-1.32 22 -2.64 22 -4 22 C-4.62599202 14.17509977 -2.32514129 7.39062767 0 0 Z " fill="#B43D21" transform="translate(6,199)"/>
<path d="M0 0 C0.33 0 0.66 0 1 0 C1.48859935 5.37459283 1.48859935 5.37459283 -0.5625 8 C-1.366875 8.66 -2.17125 9.32 -3 10 C-3.5671875 10.52078125 -4.134375 11.0415625 -4.71875 11.578125 C-9.59521028 16 -9.59521028 16 -13 16 C-12.39671875 15.43152344 -11.7934375 14.86304688 -11.171875 14.27734375 C-6.53491681 9.79744382 -2.83924382 5.80193303 0 0 Z " fill="#AA4328" transform="translate(242,219)"/>
<path d="M0 0 C1.32 0.66 2.64 1.32 4 2 C4.25 5.3125 4.25 5.3125 4 9 C2 10.9375 2 10.9375 0 12 C0.04125 10.906875 0.0825 9.81375 0.125 8.6875 C0.32074666 4.91107771 0.32074666 4.91107771 -2 2 C-1.34 2 -0.68 2 0 2 C0 1.34 0 0.68 0 0 Z " fill="#D55E3D" transform="translate(126,135)"/>
<path d="M0 0 C2.79192205 -0.05380578 5.5828141 -0.09357669 8.375 -0.125 C9.1690625 -0.14175781 9.963125 -0.15851563 10.78125 -0.17578125 C12.85492015 -0.19335473 14.92883241 -0.10335168 17 0 C17.66 0.66 18.32 1.32 19 2 C15.17189179 3.27603607 11.76524893 2.86283987 7.8125 2.5625 C7.06291016 2.51029297 6.31332031 2.45808594 5.54101562 2.40429688 C3.69362918 2.27486216 1.84675629 2.13813482 0 2 C0 1.34 0 0.68 0 0 Z " fill="#B14020" transform="translate(33,210)"/>
<path d="M0 0 C0.33 0 0.66 0 1 0 C1 1.65 1 3.3 1 5 C0.01 5.495 0.01 5.495 -1 6 C-0.9175 6.66 -0.835 7.32 -0.75 8 C-1.10103641 12.21243694 -2.96960773 15.34710677 -5 19 C-5.33 19 -5.66 19 -6 19 C-5.47736695 11.8137955 -3.19357866 6.38715733 0 0 Z " fill="#AF4123" transform="translate(144,164)"/>
<path d="M0 0 C5.95507399 0.3916035 10.62819824 1.37124595 16 4 C16 4.33 16 4.66 16 5 C14.20906809 5.08086147 12.41710372 5.13912702 10.625 5.1875 C9.12839844 5.23970703 9.12839844 5.23970703 7.6015625 5.29296875 C6.74304688 5.19628906 5.88453125 5.09960938 5 5 C4.34 4.01 3.68 3.02 3 2 C2.01 1.34 1.02 0.68 0 0 Z " fill="#BD482C" transform="translate(165,239)"/>
<path d="M0 0 C1.32 0 2.64 0 4 0 C4 0.99 4 1.98 4 3 C3.01 3 2.02 3 1 3 C1.20625 3.78375 1.4125 4.5675 1.625 5.375 C1.810625 6.674375 1.810625 6.674375 2 8 C1.34 8.66 0.68 9.32 0 10 C-0.66 9.67 -1.32 9.34 -2 9 C-1.125 2.25 -1.125 2.25 0 0 Z " fill="#D85E3C" transform="translate(140,113)"/>
<path d="M0 0 C0.66 0.33 1.32 0.66 2 1 C1.67 1.66 1.34 2.32 1 3 C0.01 3 -0.98 3 -2 3 C-2.061875 3.78375 -2.12375 4.5675 -2.1875 5.375 C-3 8 -3 8 -5.375 9.3125 C-8 10 -8 10 -11 10 C-7.50640535 6.40365256 -3.88901869 3.16548033 0 0 Z " fill="#D25233" transform="translate(76,10)"/>
<path d="M0 0 C5.28 0 10.56 0 16 0 C16 0.66 16 1.32 16 2 C17.32 2.33 18.64 2.66 20 3 C17 5 17 5 13 5 C13.33 4.01 13.66 3.02 14 2 C7.07 1.505 7.07 1.505 0 1 C0 0.67 0 0.34 0 0 Z " fill="#B7452A" transform="translate(17,210)"/>
<path d="M0 0 C2.31 0.66 4.62 1.32 7 2 C7.36552803 3.41377782 7.71695495 4.83120576 8.0625 6.25 C8.25972656 7.03890625 8.45695312 7.8278125 8.66015625 8.640625 C9.01497267 11.10394822 8.76877544 12.65604132 8 15 C6.50178941 11.62902617 6 9.79557881 6 6 C5.01 6.33 4.02 6.66 3 7 C3 6.34 3 5.68 3 5 C3.99 5 4.98 5 6 5 C6 4.34 6 3.68 6 3 C4.02 3 2.04 3 0 3 C0 2.01 0 1.02 0 0 Z " fill="#B13D23" transform="translate(67,98)"/>
<path d="M0 0 C3.48689109 3.04644169 4.90368951 5.67288586 6.3125 10.0625 C6.65925781 11.10535156 7.00601563 12.14820313 7.36328125 13.22265625 C8 16 8 16 7 19 C6.74605469 18.15695313 6.49210938 17.31390625 6.23046875 16.4453125 C5.88628906 15.34960938 5.54210937 14.25390625 5.1875 13.125 C4.85105469 12.03445312 4.51460937 10.94390625 4.16796875 9.8203125 C3.19339495 6.72701275 3.19339495 6.72701275 0 5 C-0.1875 2.375 -0.1875 2.375 0 0 Z " fill="#AC4828" transform="translate(149,23)"/>
<path d="M0 0 C0.66 0.33 1.32 0.66 2 1 C2 8.92 2 16.84 2 25 C1.67 25 1.34 25 1 25 C0.97494385 24.41508789 0.9498877 23.83017578 0.92407227 23.22753906 C0.80777038 20.56815529 0.68519933 17.90909597 0.5625 15.25 C0.50352539 13.86941406 0.50352539 13.86941406 0.44335938 12.4609375 C0.40146484 11.57148438 0.35957031 10.68203125 0.31640625 9.765625 C0.27974854 8.94868164 0.24309082 8.13173828 0.20532227 7.29003906 C0.06221566 4.98737729 0.06221566 4.98737729 -0.58227539 2.76464844 C-0.72012451 2.18231445 -0.85797363 1.59998047 -1 1 C-0.67 0.67 -0.34 0.34 0 0 Z " fill="#BE5131" transform="translate(200,165)"/>
<path d="M0 0 C0.680625 0.268125 1.36125 0.53625 2.0625 0.8125 C4 2 4 2 4.75 4.125 C4.87375 5.053125 4.87375 5.053125 5 6 C4.34 5.731875 3.68 5.46375 3 5.1875 C-0.64939067 3.74294953 -4.32245433 2.37128822 -8 1 C-8 0.67 -8 0.34 -8 0 C-2.25 -1.125 -2.25 -1.125 0 0 Z " fill="#B44631" transform="translate(221,147)"/>
<path d="M0 0 C-0.33 0.66 -0.66 1.32 -1 2 C-3.0625 2.625 -3.0625 2.625 -5 3 C-4.34 3.66 -3.68 4.32 -3 5 C-4.32 5.33 -5.64 5.66 -7 6 C-7 5.34 -7 4.68 -7 4 C-7.66 3.67 -8.32 3.34 -9 3 C-9 2.01 -9 1.02 -9 0 C-5.62182575 -0.84454356 -3.32534757 -1.10844919 0 0 Z " fill="#D54B25" transform="translate(181,142)"/>
<path d="M0 0 C0.33 0 0.66 0 1 0 C1 1.65 1 3.3 1 5 C2.32 5 3.64 5 5 5 C6.25 11.5 6.25 11.5 4 16 C3.67 13.03 3.34 10.06 3 7 C1.68 6.67 0.36 6.34 -1 6 C-0.67 4.02 -0.34 2.04 0 0 Z " fill="#A1442E" transform="translate(141,78)"/>
<path d="M0 0 C1.98 0 3.96 0 6 0 C6 1.65 6 3.3 6 5 C6.66 5 7.32 5 8 5 C9.625 7.5 9.625 7.5 11 10 C7.81326038 8.59698853 5.67778594 6.92234929 3.25 4.4375 C2.63640625 3.81746094 2.0228125 3.19742188 1.390625 2.55859375 C0 1 0 1 0 0 Z " fill="#AF4126" transform="translate(149,234)"/>
<path d="M0 0 C0.66 0.33 1.32 0.66 2 1 C0.40233897 1.86627399 -1.20339944 2.71766465 -2.8125 3.5625 C-3.70582031 4.03816406 -4.59914063 4.51382813 -5.51953125 5.00390625 C-8 6 -8 6 -11 5 C-10.67 4.01 -10.34 3.02 -10 2 C-7.9375 1.3125 -7.9375 1.3125 -6 1 C-6 1.66 -6 2.32 -6 3 C-5.05125 2.484375 -4.1025 1.96875 -3.125 1.4375 C-2.09375 0.963125 -1.0625 0.48875 0 0 Z " fill="#B5432A" transform="translate(68,169)"/>
<path d="M0 0 C0.66 0.33 1.32 0.66 2 1 C1.67 3.31 1.34 5.62 1 8 C-1.91517292 6.92598892 -3.77810176 6.22189824 -6 4 C-4.02 2.68 -2.04 1.36 0 0 Z " fill="#B94625" transform="translate(169,140)"/>
<path d="M0 0 C2.97 0 5.94 0 9 0 C9 0.33 9 0.66 9 1 C7.35 1 5.7 1 4 1 C3.731875 1.598125 3.46375 2.19625 3.1875 2.8125 C2.00082594 4.99847854 0.90400887 6.41332594 -1 8 C-1.66 8 -2.32 8 -3 8 C-3 7.34 -3 6.68 -3 6 C-2.34 6 -1.68 6 -1 6 C0.10836423 4.11683841 0.10836423 4.11683841 1 2 C0.67 1.34 0.34 0.68 0 0 Z " fill="#D2512E" transform="translate(188,247)"/>
<path d="M0 0 C4.51478398 0.53115106 7.34666857 2.36620292 11 5 C10.01 5.495 10.01 5.495 9 6 C6.64018187 5.06421005 4.30368736 4.06652192 2 3 C2.33 3.33 2.66 3.66 3 4 C2.01 4.66 1.02 5.32 0 6 C0 4.02 0 2.04 0 0 Z " fill="#B3442A" transform="translate(221,139)"/>
<path d="M0 0 C0.66 0 1.32 0 2 0 C2 0.66 2 1.32 2 2 C2.66 2 3.32 2 4 2 C6.1875 3.5 6.1875 3.5 8 6 C8.04848891 8.82313191 7.55936042 11.20319791 7 14 C4.66666667 9.33333333 2.33333333 4.66666667 0 0 Z " fill="#AD452F" transform="translate(139,27)"/>
<path d="M0 0 C0.78375 0.04125 1.5675 0.0825 2.375 0.125 C-0.60918329 3.45351213 -3.47062769 5.4455729 -7.625 7.125 C-8.615 6.795 -9.605 6.465 -10.625 6.125 C-9.67625 5.50625 -8.7275 4.8875 -7.75 4.25 C-1.61295181 0.07680723 -1.61295181 0.07680723 0 0 Z " fill="#AB3F27" transform="translate(229.625,245.875)"/>
<path d="M0 0 C1.65 0.33 3.3 0.66 5 1 C4.67 2.65 4.34 4.3 4 6 C3.67 5.34 3.34 4.68 3 4 C1.02 4.33 -0.96 4.66 -3 5 C-3.33 4.01 -3.66 3.02 -4 2 C-3.01 2 -2.02 2 -1 2 C-0.67 1.34 -0.34 0.68 0 0 Z " fill="#D24B2A" transform="translate(146,170)"/>
<path d="M0 0 C4.97093824 0.41153737 9.44508386 0.79600832 14 3 C14 3.33 14 3.66 14 4 C12.02 4.33 10.04 4.66 8 5 C7.67 4.34 7.34 3.68 7 3 C4.67843403 2.59270772 2.3431213 2.25561323 0 2 C0 1.34 0 0.68 0 0 Z " fill="#AE482E" transform="translate(207,135)"/>
<path d="M0 0 C0.66 0.66 1.32 1.32 2 2 C1.01 2.495 1.01 2.495 0 3 C1.65 4.65 3.3 6.3 5 8 C3.68 8 2.36 8 1 8 C-1.25 5.5 -1.25 5.5 -3 3 C-2.01 2.01 -1.02 1.02 0 0 Z " fill="#D15131" transform="translate(238,228)"/>
<path d="M0 0 C1.32 0 2.64 0 4 0 C3.56179109 4.55737263 3.14958831 7.57653445 0 11 C0.52268466 8.23723823 1.10869587 5.6739124 2 3 C1.01 3.33 0.02 3.66 -1 4 C-0.67 2.68 -0.34 1.36 0 0 Z " fill="#B84424" transform="translate(149,168)"/>
<path d="M0 0 C3.2626876 3.08632611 6.02235218 5.93483504 8 10 C7.67 10.66 7.34 11.32 7 12 C3.46730171 8.09543873 1.36144033 5.19822672 0 0 Z " fill="#AE3F2B" transform="translate(245,157)"/>
<path d="M0 0 C0.99 0.33 1.98 0.66 3 1 C2.04367001 2.29315061 1.08486149 3.58446853 0.125 4.875 C-0.40867187 5.59429688 -0.94234375 6.31359375 -1.4921875 7.0546875 C-3 9 -3 9 -5 11 C-5.25 8.6875 -5.25 8.6875 -5 6 C-3.0625 4.375 -3.0625 4.375 -1 3 C-0.67 2.01 -0.34 1.02 0 0 Z " fill="#B14229" transform="translate(74,20)"/>
<path d="M0 0 C1.65 1.65 3.3 3.3 5 5 C3.7191375 8.64553172 2.83328987 10.16671013 0 13 C0.66 10.03 1.32 7.06 2 4 C1.34 4 0.68 4 0 4 C0 2.68 0 1.36 0 0 Z " fill="#A53C2B" transform="translate(136,151)"/>
<path d="M0 0 C1.92759992 1.67617384 2.90534623 2.59772148 3.5 5.125 C3.665 5.74375 3.83 6.3625 4 7 C4.99 7.33 5.98 7.66 7 8 C7.33 9.65 7.66 11.3 8 13 C4.3260401 9.62392874 1.94593446 6.60879214 0 2 C0 1.34 0 0.68 0 0 Z " fill="#A73D26" transform="translate(141,220)"/>
<path d="M0 0 C-0.75 7.625 -0.75 7.625 -3 11 C-4.35064935 3.51003542 -4.35064935 3.51003542 -2.625 1 C-1 0 -1 0 0 0 Z " fill="#B34527" transform="translate(258,206)"/>
<path d="M0 0 C0.66 0.33 1.32 0.66 2 1 C1.13375 1.61875 1.13375 1.61875 0.25 2.25 C-2.02516599 4.01957355 -3.99995399 5.92852378 -6 8 C-6.66 7.01 -7.32 6.02 -8 5 C-6.71475739 4.13619741 -5.42157581 3.28419631 -4.125 2.4375 C-3.04605469 1.72400391 -3.04605469 1.72400391 -1.9453125 0.99609375 C-1.30335937 0.66738281 -0.66140625 0.33867187 0 0 Z " fill="#AC442D" transform="translate(30,175)"/>
<path d="M0 0 C2.97 0.495 2.97 0.495 6 1 C6 2.32 6 3.64 6 5 C4.35 4.67 2.7 4.34 1 4 C0.67 2.68 0.34 1.36 0 0 Z " fill="#D8492C" transform="translate(134,20)"/>
<path d="M0 0 C0.99 0.495 0.99 0.495 2 1 C2.185625 1.8971875 2.185625 1.8971875 2.375 2.8125 C3.19776186 5.69216652 4.87860635 6.9470384 7 9 C7 9.66 7 10.32 7 11 C5.0625 10.1875 5.0625 10.1875 3 9 C2.67 8.01 2.34 7.02 2 6 C1.34 6 0.68 6 0 6 C0 4.02 0 2.04 0 0 Z " fill="#D25132" transform="translate(193,184)"/>
<path d="M0 0 C1.8871875 0.061875 1.8871875 0.061875 3.8125 0.125 C3.4825 1.115 3.1525 2.105 2.8125 3.125 C-0.4875 2.795 -3.7875 2.465 -7.1875 2.125 C-4.09861478 0.06574319 -3.47814073 -0.1140374 0 0 Z " fill="#BD4723" transform="translate(178.1875,137.875)"/>
<path d="M0 0 C1.39195915 4.17587745 -0.17676781 6.13474776 -2 10 C-2.91058531 6.92677456 -3.08886184 4.19902639 -3 1 C-2.01 0.67 -1.02 0.34 0 0 Z " fill="#AD4B2E" transform="translate(144,115)"/>
<path d="M0 0 C0.33 0.99 0.66 1.98 1 3 C-4.75 8 -4.75 8 -7 8 C-5.50902342 4.2047869 -3.24299151 2.38957269 0 0 Z " fill="#D7512E" transform="translate(256,183)"/>
<path d="M0 0 C2.97 0.495 2.97 0.495 6 1 C5.67 2.98 5.34 4.96 5 7 C3.29115995 5.37660195 1.62553283 3.70680947 0 2 C0 1.34 0 0.68 0 0 Z " fill="#B3432E" transform="translate(237,163)"/>
<path d="M0 0 C3.33727786 1.17255709 5.77437487 2.18868404 8 5 C8 5.66 8 6.32 8 7 C4.59679258 5.98823563 3.24274669 5.35156418 1.1875 2.375 C0.795625 1.59125 0.40375 0.8075 0 0 Z " fill="#A9452B" transform="translate(128,159)"/>
<path d="M0 0 C0.66 0.66 1.32 1.32 2 2 C1.01 2.33 0.02 2.66 -1 3 C-1.33 3.99 -1.66 4.98 -2 6 C-2.99 6.33 -3.98 6.66 -5 7 C-5.33 5.68 -5.66 4.36 -6 3 C-5.195625 2.690625 -4.39125 2.38125 -3.5625 2.0625 C-1.10919595 1.23664655 -1.10919595 1.23664655 0 0 Z " fill="#BE4824" transform="translate(248,167)"/>
<path d="M0 0 C1.03159626 3.09478879 0.97482862 4.52631393 0.5625 7.6875 C0.46066406 8.49574219 0.35882813 9.30398437 0.25390625 10.13671875 C0.17011719 10.75160156 0.08632813 11.36648437 0 12 C-2 10 -2 10 -2.01171875 8.125 C-1.90472656 7.42375 -1.79773437 6.7225 -1.6875 6 C-1.58824219 5.29875 -1.48898438 4.5975 -1.38671875 3.875 C-1 2 -1 2 0 0 Z " fill="#B34327" transform="translate(56,82)"/>
<path d="M0 0 C0.99 0 1.98 0 3 0 C2.6875 2.375 2.6875 2.375 2 5 C1.01 5.66 0.02 6.32 -1 7 C-0.67 4.69 -0.34 2.38 0 0 Z " fill="#D16345" transform="translate(127,140)"/>
<path d="M0 0 C1.2065625 0.0309375 1.2065625 0.0309375 2.4375 0.0625 C2.4375 0.7225 2.4375 1.3825 2.4375 2.0625 C-0.2025 3.0525 -2.8425 4.0425 -5.5625 5.0625 C-3.15007962 0.07683121 -3.15007962 0.07683121 0 0 Z " fill="#D75F3E" transform="translate(150.5625,98.9375)"/>
<path d="M0 0 C1.35439668 2.70879335 1.06501451 5.00933268 1 8 C-0.32 8 -1.64 8 -3 8 C-3 7.01 -3 6.02 -3 5 C-2.34 5 -1.68 5 -1 5 C-0.67 3.35 -0.34 1.7 0 0 Z " fill="#DA472A" transform="translate(7,212)"/>
<path d="M0 0 C1.32 0.66 2.64 1.32 4 2 C3.67 2.99 3.34 3.98 3 5 C1.68 5 0.36 5 -1 5 C-0.67 3.35 -0.34 1.7 0 0 Z " fill="#D7482E" transform="translate(27,181)"/>
<path d="M0 0 C-6.625 3 -6.625 3 -10 3 C-10 2.01 -10 1.02 -10 0 C-3.375 -1.125 -3.375 -1.125 0 0 Z " fill="#A44126" transform="translate(57,176)"/>
</svg>
