<svg xmlns="http://www.w3.org/2000/svg" xmlns:v="https://svgstorm.com"
viewBox = "0 0 269 286"
width="269"
height="286">
<g fill="None" fill-opacity="0.0" stroke="#000000" stroke-opacity="0.00" stroke-width="0.3"><path d="
M 0.00 286.00 
L 269.00 286.00
L 269.00 0.00
L 0.00 0.00
L 0.00 286.00
M 196.00 40.00 
C 204.59 45.37 211.94 52.07 220.00 58.00
C 220.30 58.22 220.80 58.68 221.00 59.00
C 223.32 60.81 225.15 62.83 227.00 65.00
C 233.46 72.55 238.69 79.99 243.92 88.08 C 249.16 96.16 253.22 107.87 256.93 116.07 C 260.63 124.28 263.72 142.25 250.99 140.99 C 238.26 139.73 242.34 121.74 237.22 113.78 C 232.11 105.81 228.63 94.88 223.00 87.00
C 215.74 76.83 204.83 67.38 195.00 60.00
C 187.32 54.23 177.58 51.25 169.77 46.23 C 161.97 41.21 144.30 45.88 143.03 32.97 C 141.75 20.07 160.52 23.74 168.68 27.32 C 176.83 30.90 188.19 35.12 196.00 40.00
M 106.00 81.00 
C 106.36 83.51 106.40 85.52 106.00 88.00
C 104.58 96.76 103.65 105.06 94.75 110.75 C 85.85 116.44 88.15 123.69 94.25 130.75 C 100.36 137.80 103.00 144.11 109.00 151.00
C 110.85 153.12 113.66 153.85 114.00 157.00
C 119.19 159.54 123.60 166.34 128.00 170.00
C 129.16 170.96 130.02 172.00 131.00 173.00
C 135.90 178.00 142.33 182.11 148.00 186.00
C 153.85 190.01 159.53 194.39 166.00 197.00
C 173.01 189.42 180.21 179.71 191.00 179.00
C 192.76 178.60 194.03 178.15 196.00 178.00
C 203.65 177.44 210.13 178.74 217.00 181.00
C 236.88 187.54 266.98 207.06 259.02 231.02 C 251.06 254.98 232.94 272.04 210.00 279.00
C 204.23 280.75 199.05 281.62 193.00 280.00
C 172.98 274.65 152.81 265.35 135.00 255.00
C 121.70 247.27 106.05 238.87 94.92 228.08 C 83.79 217.30 69.10 208.30 61.00 195.00
C 60.61 194.37 60.37 193.60 60.00 193.00
C 58.09 190.95 56.68 189.15 55.00 187.00
C 30.87 163.34 23.13 134.92 9.02 104.98 C -5.08 75.03 17.38 40.08 47.00 27.00
C 80.54 12.19 102.22 54.55 106.00 81.00
M 183.00 90.00 
C 186.94 93.37 190.67 97.11 194.00 101.00
C 199.93 107.93 202.64 112.97 206.92 121.08 C 211.21 129.18 213.47 137.30 215.33 146.67 C 217.19 156.04 201.74 161.05 198.70 151.30 C 195.65 141.56 194.90 134.89 190.00 126.00
C 186.95 120.46 183.56 114.56 179.00 110.00
C 177.41 108.41 175.55 106.55 174.00 105.00
C 167.69 98.69 157.21 92.30 148.98 90.02 C 140.74 87.75 122.22 83.66 128.77 72.77 C 135.32 61.88 149.12 72.04 157.68 74.32 C 166.24 76.60 176.24 84.22 183.00 90.00 Z"/>
</g>
<g fill="None" fill-opacity="0.0" stroke="#ED8B44" stroke-opacity="0.90" stroke-width="0.3"><path d="
M 195.00 60.00 
C 195.43 60.12 198.66 59.58 200.00 60.00
C 198.38 58.84 191.78 51.81 198.00 49.00
C 193.35 48.95 192.59 45.23 197.00 46.00
C 195.52 43.35 196.02 42.44 196.00 40.00
C 188.19 35.12 176.83 30.90 168.68 27.32 C 160.52 23.74 141.75 20.07 143.03 32.97 C 144.30 45.88 161.97 41.21 169.77 46.23 C 177.58 51.25 187.32 54.23 195.00 60.00 Z"/>
</g>
<g fill="None" fill-opacity="0.0" stroke="#E86740" stroke-opacity="0.92" stroke-width="0.3"><path d="
M 47.00 27.00 
C 47.25 30.61 53.63 31.11 55.00 28.00
C 56.81 31.06 54.72 31.78 53.00 34.00
C 55.68 33.46 57.78 34.92 60.00 36.00
C 58.91 39.11 53.22 39.07 50.00 40.00
C 49.59 41.56 50.46 42.69 51.00 44.00
C 62.88 38.13 72.04 45.07 78.75 55.25 C 85.47 65.42 90.06 77.43 88.22 89.22 C 86.39 101.01 71.22 103.81 68.08 114.08 C 64.95 124.35 77.09 134.64 81.77 143.23 C 86.45 151.82 94.44 161.54 102.00 168.00
C 106.90 172.19 110.52 174.58 115.00 177.00
C 114.51 174.30 114.19 172.38 116.00 170.00
C 114.11 170.00 110.94 172.01 111.00 169.00
C 112.46 167.20 110.85 162.66 115.00 163.00
C 114.05 160.28 114.48 159.42 113.00 157.00
C 111.59 154.98 109.45 151.83 109.00 151.00
C 103.00 144.11 100.36 137.80 94.25 130.75 C 88.15 123.69 85.85 116.44 94.75 110.75 C 103.65 105.06 104.58 96.76 106.00 88.00
C 105.92 86.19 105.90 82.77 106.00 81.00
C 102.22 54.55 80.54 12.19 47.00 27.00 Z"/>
</g>
<g fill="None" fill-opacity="0.0" stroke="#E54E3E" stroke-opacity="0.92" stroke-width="0.3"><path d="
M 55.00 187.00 
C 57.01 188.97 58.49 190.58 60.00 193.00
C 60.37 193.60 60.61 194.37 61.00 195.00
C 63.13 197.28 66.20 200.08 69.00 201.00
C 68.79 197.66 66.06 195.01 63.00 194.00
C 65.93 192.09 67.36 188.02 62.00 189.00
C 65.79 185.64 64.23 177.11 67.00 175.00
C 56.97 162.43 46.55 147.31 40.08 132.92 C 33.61 118.54 21.13 98.45 21.00 83.00 C 20.88 67.55 38.47 50.20 51.00 44.00
C 50.46 42.69 49.59 41.56 50.00 40.00
C 53.22 39.07 58.91 39.11 60.00 36.00
C 57.78 34.92 55.68 33.46 53.00 34.00
C 54.72 31.78 56.81 31.06 55.00 28.00
C 53.63 31.11 47.25 30.61 47.00 27.00
C 17.38 40.08 -5.08 75.03 9.02 104.98 C 23.13 134.92 30.87 163.34 55.00 187.00 Z"/>
</g>
<g fill="None" fill-opacity="0.0" stroke="#F2A237" stroke-opacity="0.92" stroke-width="0.3"><path d="
M 195.00 60.00 
C 204.83 67.38 215.74 76.83 223.00 87.00
C 222.41 83.49 223.43 81.59 222.01 78.99 C 220.58 76.39 229.51 69.97 222.00 72.00
C 220.86 68.80 225.33 67.92 225.00 65.00
C 223.60 63.00 220.47 58.61 220.00 58.00
C 211.94 52.07 204.59 45.37 196.00 40.00
C 196.02 42.44 195.52 43.35 197.00 46.00
C 192.59 45.23 193.35 48.95 198.00 49.00
C 191.78 51.81 198.38 58.84 200.00 60.00
C 198.66 59.58 195.43 60.12 195.00 60.00 Z"/>
</g>
<g fill="None" fill-opacity="0.0" stroke="#000000" stroke-opacity="0.00" stroke-width="0.3"><path d="
M 51.00 44.00 
C 38.47 50.20 20.88 67.55 21.00 83.00 C 21.13 98.45 33.61 118.54 40.08 132.92 C 46.55 147.31 56.97 162.43 67.00 175.00
C 88.57 202.06 115.63 224.11 145.00 241.00
C 159.99 249.62 177.78 257.61 194.00 262.00
C 199.18 263.40 204.06 263.03 209.00 261.00
C 223.86 254.88 232.82 245.25 240.32 230.32 C 247.82 215.39 225.87 201.69 213.00 198.00
C 207.19 196.33 200.39 195.02 194.00 196.00
C 192.79 196.18 192.11 196.48 191.00 197.00
C 182.88 200.79 177.86 212.50 169.92 215.92 C 161.98 219.34 149.56 208.23 143.00 204.00
C 127.65 194.10 114.37 181.38 102.00 168.00
C 94.44 161.54 86.45 151.82 81.77 143.23 C 77.09 134.64 64.95 124.35 68.08 114.08 C 71.22 103.81 86.39 101.01 88.22 89.22 C 90.06 77.43 85.47 65.42 78.75 55.25 C 72.04 45.07 62.88 38.13 51.00 44.00 Z"/>
</g>
<g fill="None" fill-opacity="0.0" stroke="#E3AE56" stroke-opacity="0.51" stroke-width="0.3"><path d="
M 225.00 65.00 
C 225.16 65.23 226.00 65.00 226.00 65.00
C 224.50 62.86 222.34 61.17 221.00 59.00
C 220.80 58.68 220.30 58.22 220.00 58.00
C 220.47 58.61 223.60 63.00 225.00 65.00 Z"/>
</g>
<g fill="None" fill-opacity="0.0" stroke="#E09D69" stroke-opacity="0.02" stroke-width="0.3"><path d="
M 226.00 65.00 
C 226.50 65.00 227.00 65.00 227.00 65.00
C 225.15 62.83 223.32 60.81 221.00 59.00
C 222.34 61.17 224.50 62.86 226.00 65.00 Z"/>
</g>
<g fill="None" fill-opacity="0.0" stroke="#F7B928" stroke-opacity="0.91" stroke-width="0.3"><path d="
M 223.00 87.00 
C 228.63 94.88 232.11 105.81 237.22 113.78 C 242.34 121.74 238.26 139.73 250.99 140.99 C 263.72 142.25 260.63 124.28 256.93 116.07 C 253.22 107.87 249.16 96.16 243.92 88.08 C 238.69 79.99 233.46 72.55 227.00 65.00
C 227.00 65.00 226.50 65.00 226.00 65.00
C 226.00 65.00 225.16 65.23 225.00 65.00
C 225.33 67.92 220.86 68.80 222.00 72.00
C 229.51 69.97 220.58 76.39 222.01 78.99 C 223.43 81.59 222.41 83.49 223.00 87.00 Z"/>
</g>
<g fill="None" fill-opacity="0.0" stroke="#ED8743" stroke-opacity="0.92" stroke-width="0.3"><path d="
M 174.00 105.00 
C 175.58 106.03 178.05 108.53 179.00 110.00
C 183.56 114.56 186.95 120.46 190.00 126.00
C 189.87 123.39 192.69 121.89 193.92 118.92 C 195.15 115.94 188.09 110.70 195.00 111.00
C 192.47 109.87 190.09 105.67 191.60 103.26 C 193.11 100.85 186.37 97.95 191.00 99.00
C 188.16 96.39 185.69 92.69 183.00 90.00
C 176.24 84.22 166.24 76.60 157.68 74.32 C 149.12 72.04 135.32 61.88 128.77 72.77 C 122.22 83.66 140.74 87.75 148.98 90.02 C 157.21 92.30 167.69 98.69 174.00 105.00 Z"/>
</g>
<g fill="None" fill-opacity="0.0" stroke="#DB8057" stroke-opacity="0.38" stroke-width="0.3"><path d="
M 106.00 88.00 
C 106.40 85.52 106.36 83.51 106.00 81.00
C 105.90 82.77 105.92 86.19 106.00 88.00 Z"/>
</g>
<g fill="None" fill-opacity="0.0" stroke="#CC9868" stroke-opacity="0.06" stroke-width="0.3"><path d="
M 191.00 99.00 
C 191.83 99.76 193.22 100.28 194.00 101.00
C 190.67 97.11 186.94 93.37 183.00 90.00
C 185.69 92.69 188.16 96.39 191.00 99.00 Z"/>
</g>
<g fill="None" fill-opacity="0.0" stroke="#F09D3C" stroke-opacity="0.90" stroke-width="0.3"><path d="
M 190.00 126.00 
C 194.90 134.89 195.65 141.56 198.70 151.30 C 201.74 161.05 217.19 156.04 215.33 146.67 C 213.47 137.30 211.21 129.18 206.92 121.08 C 202.64 112.97 199.93 107.93 194.00 101.00
C 193.22 100.28 191.83 99.76 191.00 99.00
C 186.37 97.95 193.11 100.85 191.60 103.26 C 190.09 105.67 192.47 109.87 195.00 111.00
C 188.09 110.70 195.15 115.94 193.92 118.92 C 192.69 121.89 189.87 123.39 190.00 126.00 Z"/>
</g>
<g fill="None" fill-opacity="0.0" stroke="#D8945F" stroke-opacity="0.36" stroke-width="0.3"><path d="
M 174.00 105.00 
C 175.55 106.55 177.41 108.41 179.00 110.00
C 178.05 108.53 175.58 106.03 174.00 105.00 Z"/>
</g>
<g fill="None" fill-opacity="0.0" stroke="#D27453" stroke-opacity="0.40" stroke-width="0.3"><path d="
M 113.00 157.00 
C 113.16 157.23 114.00 157.00 114.00 157.00
C 113.66 153.85 110.85 153.12 109.00 151.00
C 109.45 151.83 111.59 154.98 113.00 157.00 Z"/>
</g>
<g fill="None" fill-opacity="0.0" stroke="#EA7943" stroke-opacity="0.91" stroke-width="0.3"><path d="
M 102.00 168.00 
C 114.37 181.38 127.65 194.10 143.00 204.00
C 142.97 201.74 148.35 202.25 147.00 198.00
C 142.79 199.40 142.23 192.38 138.00 195.00
C 135.35 189.68 142.36 188.78 143.00 194.00
C 144.02 190.09 144.42 187.83 148.00 186.00
C 142.33 182.11 135.90 178.00 131.00 173.00
C 130.71 172.78 129.23 171.36 128.00 170.00
C 123.60 166.34 119.19 159.54 114.00 157.00
C 114.00 157.00 113.16 157.23 113.00 157.00
C 114.48 159.42 114.05 160.28 115.00 163.00
C 110.85 162.66 112.46 167.20 111.00 169.00
C 110.94 172.01 114.11 170.00 116.00 170.00
C 114.19 172.38 114.51 174.30 115.00 177.00
C 110.52 174.58 106.90 172.19 102.00 168.00 Z"/>
</g>
<g fill="None" fill-opacity="0.0" stroke="#DA7D5F" stroke-opacity="0.29" stroke-width="0.3"><path d="
M 131.00 173.00 
C 130.02 172.00 129.16 170.96 128.00 170.00
C 129.23 171.36 130.71 172.78 131.00 173.00 Z"/>
</g>
<g fill="None" fill-opacity="0.0" stroke="#E96D41" stroke-opacity="0.92" stroke-width="0.3"><path d="
M 61.00 195.00 
C 69.10 208.30 83.79 217.30 94.92 228.08 C 106.05 238.87 121.70 247.27 135.00 255.00
C 138.57 254.69 137.14 251.13 135.00 250.00
C 139.10 248.31 141.52 244.95 136.00 244.00
C 137.30 239.37 144.72 244.71 145.00 241.00
C 115.63 224.11 88.57 202.06 67.00 175.00
C 64.23 177.11 65.79 185.64 62.00 189.00
C 67.36 188.02 65.93 192.09 63.00 194.00
C 66.06 195.01 68.79 197.66 69.00 201.00
C 66.20 200.08 63.13 197.28 61.00 195.00 Z"/>
</g>
<g fill="None" fill-opacity="0.0" stroke="#E09851" stroke-opacity="0.28" stroke-width="0.3"><path d="
M 191.00 179.00 
C 191.63 179.16 191.80 180.07 193.00 180.00
C 193.50 179.97 195.53 178.12 196.00 178.00
C 194.03 178.15 192.76 178.60 191.00 179.00 Z"/>
</g>
<g fill="None" fill-opacity="0.0" stroke="#F39E38" stroke-opacity="0.91" stroke-width="0.3"><path d="
M 193.00 180.00 
C 193.67 179.40 193.01 183.57 191.00 182.00
C 192.35 184.88 192.89 186.91 196.00 187.00
C 192.94 188.45 188.36 192.21 193.00 195.00
C 193.31 195.20 193.77 195.95 194.00 196.00
C 200.39 195.02 207.19 196.33 213.00 198.00
C 213.87 197.90 215.92 194.18 218.00 196.00
C 211.64 194.54 212.12 189.00 219.00 189.00
C 218.48 183.84 212.27 187.65 210.00 185.00
C 211.73 183.24 216.02 184.17 217.00 181.00
C 210.13 178.74 203.65 177.44 196.00 178.00
C 195.53 178.12 193.50 179.97 193.00 180.00 Z"/>
</g>
<g fill="None" fill-opacity="0.0" stroke="#EE8A43" stroke-opacity="0.93" stroke-width="0.3"><path d="
M 148.00 186.00 
C 144.42 187.83 144.02 190.09 143.00 194.00
C 142.36 188.78 135.35 189.68 138.00 195.00
C 142.23 192.38 142.79 199.40 147.00 198.00
C 148.35 202.25 142.97 201.74 143.00 204.00
C 149.56 208.23 161.98 219.34 169.92 215.92 C 177.86 212.50 182.88 200.79 191.00 197.00
C 191.71 196.30 190.80 194.49 193.00 195.00
C 188.36 192.21 192.94 188.45 196.00 187.00
C 192.89 186.91 192.35 184.88 191.00 182.00
C 193.01 183.57 193.67 179.40 193.00 180.00
C 191.80 180.07 191.63 179.16 191.00 179.00
C 180.21 179.71 173.01 189.42 166.00 197.00
C 159.53 194.39 153.85 190.01 148.00 186.00 Z"/>
</g>
<g fill="None" fill-opacity="0.0" stroke="#F6B52A" stroke-opacity="0.91" stroke-width="0.3"><path d="
M 213.00 198.00 
C 225.87 201.69 247.82 215.39 240.32 230.32 C 232.82 245.25 223.86 254.88 209.00 261.00
C 207.63 263.91 210.62 263.21 212.00 264.00
C 211.12 265.85 208.78 267.38 207.00 266.00
C 207.25 268.88 209.46 271.63 212.00 273.00
C 207.67 275.06 211.24 273.82 212.00 277.00
C 208.51 275.15 208.23 276.28 210.00 279.00
C 232.94 272.04 251.06 254.98 259.02 231.02 C 266.98 207.06 236.88 187.54 217.00 181.00
C 216.02 184.17 211.73 183.24 210.00 185.00
C 212.27 187.65 218.48 183.84 219.00 189.00
C 212.12 189.00 211.64 194.54 218.00 196.00
C 215.92 194.18 213.87 197.90 213.00 198.00 Z"/>
</g>
<g fill="None" fill-opacity="0.0" stroke="#C86658" stroke-opacity="0.29" stroke-width="0.3"><path d="
M 60.00 193.00 
C 58.49 190.58 57.01 188.97 55.00 187.00
C 56.68 189.15 58.09 190.95 60.00 193.00 Z"/>
</g>
<g fill="None" fill-opacity="0.0" stroke="#DB9E5A" stroke-opacity="0.47" stroke-width="0.3"><path d="
M 191.00 197.00 
C 192.11 196.48 192.79 196.18 194.00 196.00
C 193.77 195.95 193.31 195.20 193.00 195.00
C 190.80 194.49 191.71 196.30 191.00 197.00 Z"/>
</g>
<g fill="None" fill-opacity="0.0" stroke="#EE8843" stroke-opacity="0.92" stroke-width="0.3"><path d="
M 135.00 255.00 
C 152.81 265.35 172.98 274.65 193.00 280.00
C 190.55 277.71 196.69 273.62 199.00 275.00
C 193.48 275.13 197.29 269.18 193.00 268.00
C 195.90 265.65 195.29 263.91 194.00 262.00
C 177.78 257.61 159.99 249.62 145.00 241.00
C 144.72 244.71 137.30 239.37 136.00 244.00
C 141.52 244.95 139.10 248.31 135.00 250.00
C 137.14 251.13 138.57 254.69 135.00 255.00 Z"/>
</g>
<g fill="None" fill-opacity="0.0" stroke="#F19B3A" stroke-opacity="0.89" stroke-width="0.3"><path d="
M 194.00 262.00 
C 195.29 263.91 195.90 265.65 193.00 268.00
C 197.29 269.18 193.48 275.13 199.00 275.00
C 196.69 273.62 190.55 277.71 193.00 280.00
C 199.05 281.62 204.23 280.75 210.00 279.00
C 208.23 276.28 208.51 275.15 212.00 277.00
C 211.24 273.82 207.67 275.06 212.00 273.00
C 209.46 271.63 207.25 268.88 207.00 266.00
C 208.78 267.38 211.12 265.85 212.00 264.00
C 210.62 263.21 207.63 263.91 209.00 261.00
C 204.06 263.03 199.18 263.40 194.00 262.00 Z"/>
</g>
<g fill="#000000" fill-opacity="0.00" stroke="None">
<path d="
M 0.00 286.00 
L 269.00 286.00
L 269.00 0.00
L 0.00 0.00
L 0.00 286.00
M 196.00 40.00 
C 204.59 45.37 211.94 52.07 220.00 58.00
C 220.30 58.22 220.80 58.68 221.00 59.00
C 223.32 60.81 225.15 62.83 227.00 65.00
C 233.46 72.55 238.69 79.99 243.92 88.08 C 249.16 96.16 253.22 107.87 256.93 116.07 C 260.63 124.28 263.72 142.25 250.99 140.99 C 238.26 139.73 242.34 121.74 237.22 113.78 C 232.11 105.81 228.63 94.88 223.00 87.00
C 215.74 76.83 204.83 67.38 195.00 60.00
C 187.32 54.23 177.58 51.25 169.77 46.23 C 161.97 41.21 144.30 45.88 143.03 32.97 C 141.75 20.07 160.52 23.74 168.68 27.32 C 176.83 30.90 188.19 35.12 196.00 40.00
M 106.00 81.00 
C 106.36 83.51 106.40 85.52 106.00 88.00
C 104.58 96.76 103.65 105.06 94.75 110.75 C 85.85 116.44 88.15 123.69 94.25 130.75 C 100.36 137.80 103.00 144.11 109.00 151.00
C 110.85 153.12 113.66 153.85 114.00 157.00
C 119.19 159.54 123.60 166.34 128.00 170.00
C 129.16 170.96 130.02 172.00 131.00 173.00
C 135.90 178.00 142.33 182.11 148.00 186.00
C 153.85 190.01 159.53 194.39 166.00 197.00
C 173.01 189.42 180.21 179.71 191.00 179.00
C 192.76 178.60 194.03 178.15 196.00 178.00
C 203.65 177.44 210.13 178.74 217.00 181.00
C 236.88 187.54 266.98 207.06 259.02 231.02 C 251.06 254.98 232.94 272.04 210.00 279.00
C 204.23 280.75 199.05 281.62 193.00 280.00
C 172.98 274.65 152.81 265.35 135.00 255.00
C 121.70 247.27 106.05 238.87 94.92 228.08 C 83.79 217.30 69.10 208.30 61.00 195.00
C 60.61 194.37 60.37 193.60 60.00 193.00
C 58.09 190.95 56.68 189.15 55.00 187.00
C 30.87 163.34 23.13 134.92 9.02 104.98 C -5.08 75.03 17.38 40.08 47.00 27.00
C 80.54 12.19 102.22 54.55 106.00 81.00
M 183.00 90.00 
C 186.94 93.37 190.67 97.11 194.00 101.00
C 199.93 107.93 202.64 112.97 206.92 121.08 C 211.21 129.18 213.47 137.30 215.33 146.67 C 217.19 156.04 201.74 161.05 198.70 151.30 C 195.65 141.56 194.90 134.89 190.00 126.00
C 186.95 120.46 183.56 114.56 179.00 110.00
C 177.41 108.41 175.55 106.55 174.00 105.00
C 167.69 98.69 157.21 92.30 148.98 90.02 C 140.74 87.75 122.22 83.66 128.77 72.77 C 135.32 61.88 149.12 72.04 157.68 74.32 C 166.24 76.60 176.24 84.22 183.00 90.00 Z"/>
</g>
<g fill="#ED8B44" fill-opacity="0.90" stroke="None">
<path d="
M 195.00 60.00 
C 195.43 60.12 198.66 59.58 200.00 60.00
C 198.38 58.84 191.78 51.81 198.00 49.00
C 193.35 48.95 192.59 45.23 197.00 46.00
C 195.52 43.35 196.02 42.44 196.00 40.00
C 188.19 35.12 176.83 30.90 168.68 27.32 C 160.52 23.74 141.75 20.07 143.03 32.97 C 144.30 45.88 161.97 41.21 169.77 46.23 C 177.58 51.25 187.32 54.23 195.00 60.00 Z"/>
</g>
<g fill="#E86740" fill-opacity="0.92" stroke="None">
<path d="
M 47.00 27.00 
C 47.25 30.61 53.63 31.11 55.00 28.00
C 56.81 31.06 54.72 31.78 53.00 34.00
C 55.68 33.46 57.78 34.92 60.00 36.00
C 58.91 39.11 53.22 39.07 50.00 40.00
C 49.59 41.56 50.46 42.69 51.00 44.00
C 62.88 38.13 72.04 45.07 78.75 55.25 C 85.47 65.42 90.06 77.43 88.22 89.22 C 86.39 101.01 71.22 103.81 68.08 114.08 C 64.95 124.35 77.09 134.64 81.77 143.23 C 86.45 151.82 94.44 161.54 102.00 168.00
C 106.90 172.19 110.52 174.58 115.00 177.00
C 114.51 174.30 114.19 172.38 116.00 170.00
C 114.11 170.00 110.94 172.01 111.00 169.00
C 112.46 167.20 110.85 162.66 115.00 163.00
C 114.05 160.28 114.48 159.42 113.00 157.00
C 111.59 154.98 109.45 151.83 109.00 151.00
C 103.00 144.11 100.36 137.80 94.25 130.75 C 88.15 123.69 85.85 116.44 94.75 110.75 C 103.65 105.06 104.58 96.76 106.00 88.00
C 105.92 86.19 105.90 82.77 106.00 81.00
C 102.22 54.55 80.54 12.19 47.00 27.00 Z"/>
</g>
<g fill="#E54E3E" fill-opacity="0.92" stroke="None">
<path d="
M 55.00 187.00 
C 57.01 188.97 58.49 190.58 60.00 193.00
C 60.37 193.60 60.61 194.37 61.00 195.00
C 63.13 197.28 66.20 200.08 69.00 201.00
C 68.79 197.66 66.06 195.01 63.00 194.00
C 65.93 192.09 67.36 188.02 62.00 189.00
C 65.79 185.64 64.23 177.11 67.00 175.00
C 56.97 162.43 46.55 147.31 40.08 132.92 C 33.61 118.54 21.13 98.45 21.00 83.00 C 20.88 67.55 38.47 50.20 51.00 44.00
C 50.46 42.69 49.59 41.56 50.00 40.00
C 53.22 39.07 58.91 39.11 60.00 36.00
C 57.78 34.92 55.68 33.46 53.00 34.00
C 54.72 31.78 56.81 31.06 55.00 28.00
C 53.63 31.11 47.25 30.61 47.00 27.00
C 17.38 40.08 -5.08 75.03 9.02 104.98 C 23.13 134.92 30.87 163.34 55.00 187.00 Z"/>
</g>
<g fill="#F2A237" fill-opacity="0.92" stroke="None">
<path d="
M 195.00 60.00 
C 204.83 67.38 215.74 76.83 223.00 87.00
C 222.41 83.49 223.43 81.59 222.01 78.99 C 220.58 76.39 229.51 69.97 222.00 72.00
C 220.86 68.80 225.33 67.92 225.00 65.00
C 223.60 63.00 220.47 58.61 220.00 58.00
C 211.94 52.07 204.59 45.37 196.00 40.00
C 196.02 42.44 195.52 43.35 197.00 46.00
C 192.59 45.23 193.35 48.95 198.00 49.00
C 191.78 51.81 198.38 58.84 200.00 60.00
C 198.66 59.58 195.43 60.12 195.00 60.00 Z"/>
</g>
<g fill="#000000" fill-opacity="0.00" stroke="None">
<path d="
M 51.00 44.00 
C 38.47 50.20 20.88 67.55 21.00 83.00 C 21.13 98.45 33.61 118.54 40.08 132.92 C 46.55 147.31 56.97 162.43 67.00 175.00
C 88.57 202.06 115.63 224.11 145.00 241.00
C 159.99 249.62 177.78 257.61 194.00 262.00
C 199.18 263.40 204.06 263.03 209.00 261.00
C 223.86 254.88 232.82 245.25 240.32 230.32 C 247.82 215.39 225.87 201.69 213.00 198.00
C 207.19 196.33 200.39 195.02 194.00 196.00
C 192.79 196.18 192.11 196.48 191.00 197.00
C 182.88 200.79 177.86 212.50 169.92 215.92 C 161.98 219.34 149.56 208.23 143.00 204.00
C 127.65 194.10 114.37 181.38 102.00 168.00
C 94.44 161.54 86.45 151.82 81.77 143.23 C 77.09 134.64 64.95 124.35 68.08 114.08 C 71.22 103.81 86.39 101.01 88.22 89.22 C 90.06 77.43 85.47 65.42 78.75 55.25 C 72.04 45.07 62.88 38.13 51.00 44.00 Z"/>
</g>
<g fill="#E3AE56" fill-opacity="0.51" stroke="None">
<path d="
M 225.00 65.00 
C 225.16 65.23 226.00 65.00 226.00 65.00
C 224.50 62.86 222.34 61.17 221.00 59.00
C 220.80 58.68 220.30 58.22 220.00 58.00
C 220.47 58.61 223.60 63.00 225.00 65.00 Z"/>
</g>
<g fill="#E09D69" fill-opacity="0.02" stroke="None">
<path d="
M 226.00 65.00 
C 226.50 65.00 227.00 65.00 227.00 65.00
C 225.15 62.83 223.32 60.81 221.00 59.00
C 222.34 61.17 224.50 62.86 226.00 65.00 Z"/>
</g>
<g fill="#F7B928" fill-opacity="0.91" stroke="None">
<path d="
M 223.00 87.00 
C 228.63 94.88 232.11 105.81 237.22 113.78 C 242.34 121.74 238.26 139.73 250.99 140.99 C 263.72 142.25 260.63 124.28 256.93 116.07 C 253.22 107.87 249.16 96.16 243.92 88.08 C 238.69 79.99 233.46 72.55 227.00 65.00
C 227.00 65.00 226.50 65.00 226.00 65.00
C 226.00 65.00 225.16 65.23 225.00 65.00
C 225.33 67.92 220.86 68.80 222.00 72.00
C 229.51 69.97 220.58 76.39 222.01 78.99 C 223.43 81.59 222.41 83.49 223.00 87.00 Z"/>
</g>
<g fill="#ED8743" fill-opacity="0.92" stroke="None">
<path d="
M 174.00 105.00 
C 175.58 106.03 178.05 108.53 179.00 110.00
C 183.56 114.56 186.95 120.46 190.00 126.00
C 189.87 123.39 192.69 121.89 193.92 118.92 C 195.15 115.94 188.09 110.70 195.00 111.00
C 192.47 109.87 190.09 105.67 191.60 103.26 C 193.11 100.85 186.37 97.95 191.00 99.00
C 188.16 96.39 185.69 92.69 183.00 90.00
C 176.24 84.22 166.24 76.60 157.68 74.32 C 149.12 72.04 135.32 61.88 128.77 72.77 C 122.22 83.66 140.74 87.75 148.98 90.02 C 157.21 92.30 167.69 98.69 174.00 105.00 Z"/>
</g>
<g fill="#DB8057" fill-opacity="0.38" stroke="None">
<path d="
M 106.00 88.00 
C 106.40 85.52 106.36 83.51 106.00 81.00
C 105.90 82.77 105.92 86.19 106.00 88.00 Z"/>
</g>
<g fill="#CC9868" fill-opacity="0.06" stroke="None">
<path d="
M 191.00 99.00 
C 191.83 99.76 193.22 100.28 194.00 101.00
C 190.67 97.11 186.94 93.37 183.00 90.00
C 185.69 92.69 188.16 96.39 191.00 99.00 Z"/>
</g>
<g fill="#F09D3C" fill-opacity="0.90" stroke="None">
<path d="
M 190.00 126.00 
C 194.90 134.89 195.65 141.56 198.70 151.30 C 201.74 161.05 217.19 156.04 215.33 146.67 C 213.47 137.30 211.21 129.18 206.92 121.08 C 202.64 112.97 199.93 107.93 194.00 101.00
C 193.22 100.28 191.83 99.76 191.00 99.00
C 186.37 97.95 193.11 100.85 191.60 103.26 C 190.09 105.67 192.47 109.87 195.00 111.00
C 188.09 110.70 195.15 115.94 193.92 118.92 C 192.69 121.89 189.87 123.39 190.00 126.00 Z"/>
</g>
<g fill="#D8945F" fill-opacity="0.36" stroke="None">
<path d="
M 174.00 105.00 
C 175.55 106.55 177.41 108.41 179.00 110.00
C 178.05 108.53 175.58 106.03 174.00 105.00 Z"/>
</g>
<g fill="#D27453" fill-opacity="0.40" stroke="None">
<path d="
M 113.00 157.00 
C 113.16 157.23 114.00 157.00 114.00 157.00
C 113.66 153.85 110.85 153.12 109.00 151.00
C 109.45 151.83 111.59 154.98 113.00 157.00 Z"/>
</g>
<g fill="#EA7943" fill-opacity="0.91" stroke="None">
<path d="
M 102.00 168.00 
C 114.37 181.38 127.65 194.10 143.00 204.00
C 142.97 201.74 148.35 202.25 147.00 198.00
C 142.79 199.40 142.23 192.38 138.00 195.00
C 135.35 189.68 142.36 188.78 143.00 194.00
C 144.02 190.09 144.42 187.83 148.00 186.00
C 142.33 182.11 135.90 178.00 131.00 173.00
C 130.71 172.78 129.23 171.36 128.00 170.00
C 123.60 166.34 119.19 159.54 114.00 157.00
C 114.00 157.00 113.16 157.23 113.00 157.00
C 114.48 159.42 114.05 160.28 115.00 163.00
C 110.85 162.66 112.46 167.20 111.00 169.00
C 110.94 172.01 114.11 170.00 116.00 170.00
C 114.19 172.38 114.51 174.30 115.00 177.00
C 110.52 174.58 106.90 172.19 102.00 168.00 Z"/>
</g>
<g fill="#DA7D5F" fill-opacity="0.29" stroke="None">
<path d="
M 131.00 173.00 
C 130.02 172.00 129.16 170.96 128.00 170.00
C 129.23 171.36 130.71 172.78 131.00 173.00 Z"/>
</g>
<g fill="#E96D41" fill-opacity="0.92" stroke="None">
<path d="
M 61.00 195.00 
C 69.10 208.30 83.79 217.30 94.92 228.08 C 106.05 238.87 121.70 247.27 135.00 255.00
C 138.57 254.69 137.14 251.13 135.00 250.00
C 139.10 248.31 141.52 244.95 136.00 244.00
C 137.30 239.37 144.72 244.71 145.00 241.00
C 115.63 224.11 88.57 202.06 67.00 175.00
C 64.23 177.11 65.79 185.64 62.00 189.00
C 67.36 188.02 65.93 192.09 63.00 194.00
C 66.06 195.01 68.79 197.66 69.00 201.00
C 66.20 200.08 63.13 197.28 61.00 195.00 Z"/>
</g>
<g fill="#E09851" fill-opacity="0.28" stroke="None">
<path d="
M 191.00 179.00 
C 191.63 179.16 191.80 180.07 193.00 180.00
C 193.50 179.97 195.53 178.12 196.00 178.00
C 194.03 178.15 192.76 178.60 191.00 179.00 Z"/>
</g>
<g fill="#F39E38" fill-opacity="0.91" stroke="None">
<path d="
M 193.00 180.00 
C 193.67 179.40 193.01 183.57 191.00 182.00
C 192.35 184.88 192.89 186.91 196.00 187.00
C 192.94 188.45 188.36 192.21 193.00 195.00
C 193.31 195.20 193.77 195.95 194.00 196.00
C 200.39 195.02 207.19 196.33 213.00 198.00
C 213.87 197.90 215.92 194.18 218.00 196.00
C 211.64 194.54 212.12 189.00 219.00 189.00
C 218.48 183.84 212.27 187.65 210.00 185.00
C 211.73 183.24 216.02 184.17 217.00 181.00
C 210.13 178.74 203.65 177.44 196.00 178.00
C 195.53 178.12 193.50 179.97 193.00 180.00 Z"/>
</g>
<g fill="#EE8A43" fill-opacity="0.93" stroke="None">
<path d="
M 148.00 186.00 
C 144.42 187.83 144.02 190.09 143.00 194.00
C 142.36 188.78 135.35 189.68 138.00 195.00
C 142.23 192.38 142.79 199.40 147.00 198.00
C 148.35 202.25 142.97 201.74 143.00 204.00
C 149.56 208.23 161.98 219.34 169.92 215.92 C 177.86 212.50 182.88 200.79 191.00 197.00
C 191.71 196.30 190.80 194.49 193.00 195.00
C 188.36 192.21 192.94 188.45 196.00 187.00
C 192.89 186.91 192.35 184.88 191.00 182.00
C 193.01 183.57 193.67 179.40 193.00 180.00
C 191.80 180.07 191.63 179.16 191.00 179.00
C 180.21 179.71 173.01 189.42 166.00 197.00
C 159.53 194.39 153.85 190.01 148.00 186.00 Z"/>
</g>
<g fill="#F6B52A" fill-opacity="0.91" stroke="None">
<path d="
M 213.00 198.00 
C 225.87 201.69 247.82 215.39 240.32 230.32 C 232.82 245.25 223.86 254.88 209.00 261.00
C 207.63 263.91 210.62 263.21 212.00 264.00
C 211.12 265.85 208.78 267.38 207.00 266.00
C 207.25 268.88 209.46 271.63 212.00 273.00
C 207.67 275.06 211.24 273.82 212.00 277.00
C 208.51 275.15 208.23 276.28 210.00 279.00
C 232.94 272.04 251.06 254.98 259.02 231.02 C 266.98 207.06 236.88 187.54 217.00 181.00
C 216.02 184.17 211.73 183.24 210.00 185.00
C 212.27 187.65 218.48 183.84 219.00 189.00
C 212.12 189.00 211.64 194.54 218.00 196.00
C 215.92 194.18 213.87 197.90 213.00 198.00 Z"/>
</g>
<g fill="#C86658" fill-opacity="0.29" stroke="None">
<path d="
M 60.00 193.00 
C 58.49 190.58 57.01 188.97 55.00 187.00
C 56.68 189.15 58.09 190.95 60.00 193.00 Z"/>
</g>
<g fill="#DB9E5A" fill-opacity="0.47" stroke="None">
<path d="
M 191.00 197.00 
C 192.11 196.48 192.79 196.18 194.00 196.00
C 193.77 195.95 193.31 195.20 193.00 195.00
C 190.80 194.49 191.71 196.30 191.00 197.00 Z"/>
</g>
<g fill="#EE8843" fill-opacity="0.92" stroke="None">
<path d="
M 135.00 255.00 
C 152.81 265.35 172.98 274.65 193.00 280.00
C 190.55 277.71 196.69 273.62 199.00 275.00
C 193.48 275.13 197.29 269.18 193.00 268.00
C 195.90 265.65 195.29 263.91 194.00 262.00
C 177.78 257.61 159.99 249.62 145.00 241.00
C 144.72 244.71 137.30 239.37 136.00 244.00
C 141.52 244.95 139.10 248.31 135.00 250.00
C 137.14 251.13 138.57 254.69 135.00 255.00 Z"/>
</g>
<g fill="#F19B3A" fill-opacity="0.89" stroke="None">
<path d="
M 194.00 262.00 
C 195.29 263.91 195.90 265.65 193.00 268.00
C 197.29 269.18 193.48 275.13 199.00 275.00
C 196.69 273.62 190.55 277.71 193.00 280.00
C 199.05 281.62 204.23 280.75 210.00 279.00
C 208.23 276.28 208.51 275.15 212.00 277.00
C 211.24 273.82 207.67 275.06 212.00 273.00
C 209.46 271.63 207.25 268.88 207.00 266.00
C 208.78 267.38 211.12 265.85 212.00 264.00
C 210.62 263.21 207.63 263.91 209.00 261.00
C 204.06 263.03 199.18 263.40 194.00 262.00 Z"/>
</g>
</svg>